<svg width="127" height="176" viewBox="0 0 127 176" fill="none" xmlns="http://www.w3.org/2000/svg">
<path d="M120.987 107.759L73.4643 25.2813C69.0402 17.6031 57.9598 17.6031 53.5357 25.2813L6.01304 107.759C1.59559 115.425 7.12907 125 15.9773 125H111.023C119.871 125 125.404 115.425 120.987 107.759Z" stroke="black" stroke-width="8"/>
<path d="M61.068 96.452H67.44L69.168 38.456C67.584 37.952 65.856 37.7 63.984 37.7C62.184 37.7 60.528 37.952 59.016 38.456L61.068 96.452ZM63.984 117.404C62.4 117.404 61.032 116.828 59.88 115.676C58.728 114.524 58.152 113.156 58.152 111.572C58.152 109.916 58.728 108.548 59.88 107.468C61.032 106.316 62.4 105.74 63.984 105.74C65.64 105.74 67.008 106.316 68.088 107.468C69.24 108.548 69.816 109.916 69.816 111.572C69.816 113.156 69.24 114.524 68.088 115.676C67.008 116.828 65.64 117.404 63.984 117.404Z" fill="black"/>
</svg>
