<svg width="1440" height="204" viewBox="0 0 1440 204" fill="none" xmlns="http://www.w3.org/2000/svg">
<rect width="1440" height="204" fill="#FFD201"/>
<path d="M250.96 98.24H255.4C257.56 98.24 259.6 98.36 261.88 98.6V86.48C259.96 86.72 258.52 86.84 255.4 86.84H250.96V81.8H255.4C257.68 81.8 259.6 81.92 261.88 82.16V70.16C259.72 70.4 257.92 70.52 255.4 70.52H250.96V65.6H255.88C258.76 65.6 261.52 65.72 264.16 65.84V50.24C260.32 50.72 256.48 50.96 250.24 50.96H225.16C220 50.96 217 50.84 211.96 50.36C212.44 55.16 212.56 57.68 212.56 62.84V104C212.56 107.96 212.32 112.76 211.96 117.08C215.56 116.72 217.12 116.6 220.12 116.6H248.92C248.8 126.2 248.68 130.04 248.32 134.36C247.48 127.64 246.76 124.16 244.72 118.4L240.04 119.96C241.84 127.16 242.2 128.72 242.92 137L248.32 134.6C247.36 142.16 246.28 143.72 241.96 143.72C240.28 143.72 238.72 143.48 235.36 143C237.4 149.48 238.12 153.2 238.6 160.04C239.44 160.04 240.04 160.04 240.52 160.04C245.68 160.04 250.36 159.32 252.76 158.24C256.84 156.32 258.52 153.8 260.2 147.32C262.24 139.64 263.2 128.6 263.56 111.2C263.68 105.68 263.68 104.72 263.92 102.92C261.4 103.28 259.6 103.4 255.28 103.4H250.96V98.24ZM235.36 98.24V103.4H228.64V98.24H235.36ZM235.36 86.84H228.64V81.8H235.36V86.84ZM235.36 70.52H228.64V65.6H235.36V70.52ZM277.36 68.24C273.76 68.24 269.32 68 265 67.52V86.12C268.6 85.64 272.68 85.4 277.48 85.4H283.24V102.44H278.92C274.12 102.44 270.52 102.2 266.8 101.84V119.72C270.52 119.36 274.48 119.12 279.04 119.12H283.24V139.52H277.48C272.92 139.52 267.28 139.28 263.08 138.8V157.28C266.56 156.8 271.84 156.56 277.48 156.56H307.48C313.12 156.56 317.56 156.8 321.76 157.28V138.8C317.32 139.28 312.04 139.52 307.48 139.52H301.24V119.12H306.16C310.6 119.12 314.68 119.36 318.4 119.72V101.84C314.56 102.2 310.96 102.44 306.16 102.44H301.24V85.4H308.2C312.52 85.4 316.72 85.64 320.2 86V67.52C316.48 68 313.12 68.24 307.84 68.24H301.24L309.52 60.32C301.12 54.44 294.16 50.48 284.8 46.4L271.72 58.16C279.16 61.52 284.32 64.4 289.96 68.24H277.36ZM212.44 118.76C212.08 132.92 210.64 141.68 207.16 150.44L217.36 155.96C220.12 147.56 221.68 136.28 222.28 121.04L212.44 118.76ZM223.72 121.04C224.2 127.04 224.32 129.44 224.32 135.08C224.32 141.56 224.2 145.04 223.6 152.36L232 150.8C232.12 148.4 232.12 146.48 232.12 145.28C232.12 136.64 231.64 128.36 230.44 119.84L223.72 121.04ZM232.24 120.56C233.68 127.88 234.04 131.6 234.64 142.04L241 140.24C239.32 125.36 239.32 125.36 237.88 119.12L232.24 120.56ZM345.76 56.24C339.4 56.24 334 56 330.28 55.52V72.8C334.6 72.32 339.4 72.08 345.16 72.08H375.16V76.4H352.36C345.28 76.4 342.88 76.28 339.4 75.92C339.76 80.12 339.88 82.64 339.88 87.68V112.88C339.88 118.04 339.76 120.32 339.4 124.64C343 124.28 345.52 124.16 352.48 124.16H375.16V128.72H345.52C338.08 128.72 333.64 128.48 330.04 128V145.76C333.64 145.28 338.68 145.04 345.76 145.04H375.16C375.16 152.12 375.04 154.4 374.32 159.44H394.84C394.24 155 394 151.52 394 145.04H424.48C431.92 145.04 436.24 145.28 440.2 145.76V128C436.72 128.48 432.4 128.72 424.96 128.72H394V124.16H417.88C425.08 124.16 427.24 124.28 430.96 124.64C430.6 120.2 430.48 118.52 430.48 112.88V87.68C430.48 82.04 430.6 80.36 430.96 75.92C427.48 76.28 425.2 76.4 418 76.4H394V72.08H425.08C430.96 72.08 435.4 72.32 439.96 72.8V55.52C436.24 56 432.04 56.24 424.48 56.24H394C394 52.64 394.24 50.6 394.72 47.12H374.44C374.92 50.6 375.04 52.64 375.16 56.24H345.76ZM375.16 89.6V94.28H358V89.6H375.16ZM375.16 106.28V110.96H358V106.28H375.16ZM394 110.96V106.28H412.36V110.96H394ZM394 94.28V89.6H412.36V94.28H394ZM520.48 89.6C520.48 91.64 520.24 94.16 519.88 95.72H537.4C537.04 94.64 536.92 92.72 536.92 89.72V87.44C536.92 85.04 536.92 85.04 536.68 83.48C542.56 90.68 546.64 94.4 554.32 99.44C557.2 93.32 558.88 90.32 562.72 84.8C554.32 80.6 547.6 75.92 542.8 70.4H547.72C553.72 70.4 556.6 70.52 559.96 71V54.32C557.2 54.8 552.88 55.04 547.36 55.04H536.92C536.92 50 537.04 48.92 537.4 47.24H520C520.24 50 520.48 52.64 520.48 55.04H516.76C511.6 55.04 509.08 54.92 505.24 54.32V70.88C508.84 70.52 509.92 70.4 515.44 70.4C511.48 74.6 509.68 76.16 504.4 79.76C499.72 76.88 496.12 74 492.76 70.4C497.44 70.4 499.96 70.52 502.36 70.88V54.44C499.6 54.92 497.56 55.04 491.2 55.04H487.96V53.72C487.96 50.72 488.08 48.68 488.44 47.24H471.16C471.52 50 471.76 52.64 471.76 55.04H462.52C456.76 55.04 453.64 54.8 450.64 54.32V71C453.76 70.52 456.4 70.4 462.04 70.4H465.88C461.2 76.16 455.56 80.72 447.76 84.92C450.88 89.84 452.8 93.56 455.2 99.44C462.64 94.4 465.52 91.52 471.88 83.48C471.76 86.12 471.76 86.12 471.76 87.08V89.36C471.76 91.52 471.52 94.16 471.28 95.72H488.56C488.08 93.92 487.96 92.12 487.96 89.6V86.96C487.96 85.28 487.96 85.28 487.96 85.04C487.84 83.96 487.84 83.96 487.72 83.36C491.08 87.8 493.48 90.32 498.16 94.04C499.6 91.16 500.08 90.44 501.64 88.04C504.16 91.4 505.12 92.84 507.28 96.68C513.4 92 517.36 88.16 520.6 83.6C520.6 84.2 520.6 84.32 520.6 84.92C520.6 85.16 520.48 85.52 520.48 85.88C520.48 86.48 520.48 86.96 520.48 87.08V89.6ZM515.44 131.48H529.36L520.6 137.12C530.68 147.8 537.76 153.2 550 159.56C554.68 151.64 556.48 149.12 561.76 143.48C551.2 139.88 544.96 136.64 538.72 131.48H544.36C549.16 131.48 554.2 131.72 557.8 132.08V115.52C553.72 115.88 549.4 116.12 543.52 116.12H467.56C461.32 116.12 456.52 115.88 452.56 115.52V132.08C457 131.72 462.04 131.48 467.68 131.48H472.96C466.48 137.96 460 141.56 448.72 144.92C454.24 149.96 457.36 153.68 461.08 159.68C470.92 154.76 475.84 151.52 482.2 145.64C484.48 151.64 485.32 154.76 485.92 159.2C490 159.32 493.12 159.44 495.16 159.44C505.96 159.44 510.64 158.48 513.16 155.6C514.6 154.04 515.44 151.28 515.44 148.4V131.48ZM481.6 131.48H496.84V140.48C496.84 143.36 496.24 143.84 492.04 143.84C490.48 143.84 487.6 143.6 484.6 143.24C486.76 141.08 487.72 139.88 490.48 136.28L481.6 131.48ZM546.4 98C544.36 98.24 540.28 98.48 538.48 98.48H476.32C466 98.24 466 98.24 463.96 98V112.64C467.08 112.4 471.4 112.16 475.96 112.16H534.52C538.48 112.16 543.4 112.4 546.4 112.64V98ZM641.44 138.2V100.16H660.28C665.08 100.16 670.6 100.4 675.64 100.76V81.92C670.36 82.4 665.8 82.64 660.28 82.64H641.44V63.68C641.44 57.32 641.68 53.48 642.16 48.56H621.64C622.24 53 622.36 56 622.36 63.68V138.2H605.56V85.16C605.56 79.04 605.8 73.88 606.28 69.2H586.24C586.72 74.12 586.96 79.28 586.96 85.28V138.2C580.12 138.2 575.2 137.96 569.92 137.36V156.92C576.4 156.32 581.32 156.08 587.08 156.08H663.28C669.76 156.08 674.56 156.32 680.2 156.92V137.36C674.8 137.96 669.88 138.2 663.28 138.2H641.44Z" fill="black"/>
<path d="M185.987 135.759L138.464 53.2813C134.04 45.6031 122.96 45.6031 118.536 53.2813L71.013 135.759C66.5956 143.425 72.1291 153 80.9773 153H176.023C184.871 153 190.404 143.425 185.987 135.759Z" stroke="black" stroke-width="8"/>
<path d="M126.068 124.452H132.44L134.168 66.456C132.584 65.952 130.856 65.7 128.984 65.7C127.184 65.7 125.528 65.952 124.016 66.456L126.068 124.452ZM128.984 145.404C127.4 145.404 126.032 144.828 124.88 143.676C123.728 142.524 123.152 141.156 123.152 139.572C123.152 137.916 123.728 136.548 124.88 135.468C126.032 134.316 127.4 133.74 128.984 133.74C130.64 133.74 132.008 134.316 133.088 135.468C134.24 136.548 134.816 137.916 134.816 139.572C134.816 141.156 134.24 142.524 133.088 143.676C132.008 144.828 130.64 145.404 128.984 145.404Z" fill="black"/>
<path d="M966.96 98.24H971.4C973.56 98.24 975.6 98.36 977.88 98.6V86.48C975.96 86.72 974.52 86.84 971.4 86.84H966.96V81.8H971.4C973.68 81.8 975.6 81.92 977.88 82.16V70.16C975.72 70.4 973.92 70.52 971.4 70.52H966.96V65.6H971.88C974.76 65.6 977.52 65.72 980.16 65.84V50.24C976.32 50.72 972.48 50.96 966.24 50.96H941.16C936 50.96 933 50.84 927.96 50.36C928.44 55.16 928.56 57.68 928.56 62.84V104C928.56 107.96 928.32 112.76 927.96 117.08C931.56 116.72 933.12 116.6 936.12 116.6H964.92C964.8 126.2 964.68 130.04 964.32 134.36C963.48 127.64 962.76 124.16 960.72 118.4L956.04 119.96C957.84 127.16 958.2 128.72 958.92 137L964.32 134.6C963.36 142.16 962.28 143.72 957.96 143.72C956.28 143.72 954.72 143.48 951.36 143C953.4 149.48 954.12 153.2 954.6 160.04C955.44 160.04 956.04 160.04 956.52 160.04C961.68 160.04 966.36 159.32 968.76 158.24C972.84 156.32 974.52 153.8 976.2 147.32C978.24 139.64 979.2 128.6 979.56 111.2C979.68 105.68 979.68 104.72 979.92 102.92C977.4 103.28 975.6 103.4 971.28 103.4H966.96V98.24ZM951.36 98.24V103.4H944.64V98.24H951.36ZM951.36 86.84H944.64V81.8H951.36V86.84ZM951.36 70.52H944.64V65.6H951.36V70.52ZM993.36 68.24C989.76 68.24 985.32 68 981 67.52V86.12C984.6 85.64 988.68 85.4 993.48 85.4H999.24V102.44H994.92C990.12 102.44 986.52 102.2 982.8 101.84V119.72C986.52 119.36 990.48 119.12 995.04 119.12H999.24V139.52H993.48C988.92 139.52 983.28 139.28 979.08 138.8V157.28C982.56 156.8 987.84 156.56 993.48 156.56H1023.48C1029.12 156.56 1033.56 156.8 1037.76 157.28V138.8C1033.32 139.28 1028.04 139.52 1023.48 139.52H1017.24V119.12H1022.16C1026.6 119.12 1030.68 119.36 1034.4 119.72V101.84C1030.56 102.2 1026.96 102.44 1022.16 102.44H1017.24V85.4H1024.2C1028.52 85.4 1032.72 85.64 1036.2 86V67.52C1032.48 68 1029.12 68.24 1023.84 68.24H1017.24L1025.52 60.32C1017.12 54.44 1010.16 50.48 1000.8 46.4L987.72 58.16C995.16 61.52 1000.32 64.4 1005.96 68.24H993.36ZM928.44 118.76C928.08 132.92 926.64 141.68 923.16 150.44L933.36 155.96C936.12 147.56 937.68 136.28 938.28 121.04L928.44 118.76ZM939.72 121.04C940.2 127.04 940.32 129.44 940.32 135.08C940.32 141.56 940.2 145.04 939.6 152.36L948 150.8C948.12 148.4 948.12 146.48 948.12 145.28C948.12 136.64 947.64 128.36 946.44 119.84L939.72 121.04ZM948.24 120.56C949.68 127.88 950.04 131.6 950.64 142.04L957 140.24C955.32 125.36 955.32 125.36 953.88 119.12L948.24 120.56ZM1061.76 56.24C1055.4 56.24 1050 56 1046.28 55.52V72.8C1050.6 72.32 1055.4 72.08 1061.16 72.08H1091.16V76.4H1068.36C1061.28 76.4 1058.88 76.28 1055.4 75.92C1055.76 80.12 1055.88 82.64 1055.88 87.68V112.88C1055.88 118.04 1055.76 120.32 1055.4 124.64C1059 124.28 1061.52 124.16 1068.48 124.16H1091.16V128.72H1061.52C1054.08 128.72 1049.64 128.48 1046.04 128V145.76C1049.64 145.28 1054.68 145.04 1061.76 145.04H1091.16C1091.16 152.12 1091.04 154.4 1090.32 159.44H1110.84C1110.24 155 1110 151.52 1110 145.04H1140.48C1147.92 145.04 1152.24 145.28 1156.2 145.76V128C1152.72 128.48 1148.4 128.72 1140.96 128.72H1110V124.16H1133.88C1141.08 124.16 1143.24 124.28 1146.96 124.64C1146.6 120.2 1146.48 118.52 1146.48 112.88V87.68C1146.48 82.04 1146.6 80.36 1146.96 75.92C1143.48 76.28 1141.2 76.4 1134 76.4H1110V72.08H1141.08C1146.96 72.08 1151.4 72.32 1155.96 72.8V55.52C1152.24 56 1148.04 56.24 1140.48 56.24H1110C1110 52.64 1110.24 50.6 1110.72 47.12H1090.44C1090.92 50.6 1091.04 52.64 1091.16 56.24H1061.76ZM1091.16 89.6V94.28H1074V89.6H1091.16ZM1091.16 106.28V110.96H1074V106.28H1091.16ZM1110 110.96V106.28H1128.36V110.96H1110ZM1110 94.28V89.6H1128.36V94.28H1110ZM1236.48 89.6C1236.48 91.64 1236.24 94.16 1235.88 95.72H1253.4C1253.04 94.64 1252.92 92.72 1252.92 89.72V87.44C1252.92 85.04 1252.92 85.04 1252.68 83.48C1258.56 90.68 1262.64 94.4 1270.32 99.44C1273.2 93.32 1274.88 90.32 1278.72 84.8C1270.32 80.6 1263.6 75.92 1258.8 70.4H1263.72C1269.72 70.4 1272.6 70.52 1275.96 71V54.32C1273.2 54.8 1268.88 55.04 1263.36 55.04H1252.92C1252.92 50 1253.04 48.92 1253.4 47.24H1236C1236.24 50 1236.48 52.64 1236.48 55.04H1232.76C1227.6 55.04 1225.08 54.92 1221.24 54.32V70.88C1224.84 70.52 1225.92 70.4 1231.44 70.4C1227.48 74.6 1225.68 76.16 1220.4 79.76C1215.72 76.88 1212.12 74 1208.76 70.4C1213.44 70.4 1215.96 70.52 1218.36 70.88V54.44C1215.6 54.92 1213.56 55.04 1207.2 55.04H1203.96V53.72C1203.96 50.72 1204.08 48.68 1204.44 47.24H1187.16C1187.52 50 1187.76 52.64 1187.76 55.04H1178.52C1172.76 55.04 1169.64 54.8 1166.64 54.32V71C1169.76 70.52 1172.4 70.4 1178.04 70.4H1181.88C1177.2 76.16 1171.56 80.72 1163.76 84.92C1166.88 89.84 1168.8 93.56 1171.2 99.44C1178.64 94.4 1181.52 91.52 1187.88 83.48C1187.76 86.12 1187.76 86.12 1187.76 87.08V89.36C1187.76 91.52 1187.52 94.16 1187.28 95.72H1204.56C1204.08 93.92 1203.96 92.12 1203.96 89.6V86.96C1203.96 85.28 1203.96 85.28 1203.96 85.04C1203.84 83.96 1203.84 83.96 1203.72 83.36C1207.08 87.8 1209.48 90.32 1214.16 94.04C1215.6 91.16 1216.08 90.44 1217.64 88.04C1220.16 91.4 1221.12 92.84 1223.28 96.68C1229.4 92 1233.36 88.16 1236.6 83.6C1236.6 84.2 1236.6 84.32 1236.6 84.92C1236.6 85.16 1236.48 85.52 1236.48 85.88C1236.48 86.48 1236.48 86.96 1236.48 87.08V89.6ZM1231.44 131.48H1245.36L1236.6 137.12C1246.68 147.8 1253.76 153.2 1266 159.56C1270.68 151.64 1272.48 149.12 1277.76 143.48C1267.2 139.88 1260.96 136.64 1254.72 131.48H1260.36C1265.16 131.48 1270.2 131.72 1273.8 132.08V115.52C1269.72 115.88 1265.4 116.12 1259.52 116.12H1183.56C1177.32 116.12 1172.52 115.88 1168.56 115.52V132.08C1173 131.72 1178.04 131.48 1183.68 131.48H1188.96C1182.48 137.96 1176 141.56 1164.72 144.92C1170.24 149.96 1173.36 153.68 1177.08 159.68C1186.92 154.76 1191.84 151.52 1198.2 145.64C1200.48 151.64 1201.32 154.76 1201.92 159.2C1206 159.32 1209.12 159.44 1211.16 159.44C1221.96 159.44 1226.64 158.48 1229.16 155.6C1230.6 154.04 1231.44 151.28 1231.44 148.4V131.48ZM1197.6 131.48H1212.84V140.48C1212.84 143.36 1212.24 143.84 1208.04 143.84C1206.48 143.84 1203.6 143.6 1200.6 143.24C1202.76 141.08 1203.72 139.88 1206.48 136.28L1197.6 131.48ZM1262.4 98C1260.36 98.24 1256.28 98.48 1254.48 98.48H1192.32C1182 98.24 1182 98.24 1179.96 98V112.64C1183.08 112.4 1187.4 112.16 1191.96 112.16H1250.52C1254.48 112.16 1259.4 112.4 1262.4 112.64V98ZM1357.44 138.2V100.16H1376.28C1381.08 100.16 1386.6 100.4 1391.64 100.76V81.92C1386.36 82.4 1381.8 82.64 1376.28 82.64H1357.44V63.68C1357.44 57.32 1357.68 53.48 1358.16 48.56H1337.64C1338.24 53 1338.36 56 1338.36 63.68V138.2H1321.56V85.16C1321.56 79.04 1321.8 73.88 1322.28 69.2H1302.24C1302.72 74.12 1302.96 79.28 1302.96 85.28V138.2C1296.12 138.2 1291.2 137.96 1285.92 137.36V156.92C1292.4 156.32 1297.32 156.08 1303.08 156.08H1379.28C1385.76 156.08 1390.56 156.32 1396.2 156.92V137.36C1390.8 137.96 1385.88 138.2 1379.28 138.2H1357.44Z" fill="black"/>
<path d="M901.987 135.759L854.464 53.2813C850.04 45.6031 838.96 45.6031 834.536 53.2813L787.013 135.759C782.596 143.425 788.129 153 796.977 153H892.023C900.871 153 906.404 143.425 901.987 135.759Z" stroke="black" stroke-width="8"/>
<path d="M842.068 124.452H848.44L850.168 66.456C848.584 65.952 846.856 65.7 844.984 65.7C843.184 65.7 841.528 65.952 840.016 66.456L842.068 124.452ZM844.984 145.404C843.4 145.404 842.032 144.828 840.88 143.676C839.728 142.524 839.152 141.156 839.152 139.572C839.152 137.916 839.728 136.548 840.88 135.468C842.032 134.316 843.4 133.74 844.984 133.74C846.64 133.74 848.008 134.316 849.088 135.468C850.24 136.548 850.816 137.916 850.816 139.572C850.816 141.156 850.24 142.524 849.088 143.676C848.008 144.828 846.64 145.404 844.984 145.404Z" fill="black"/>
<path d="M46.3795 5H68L56.7591 25H36L46.3795 5Z" fill="black"/>
<path d="M302.38 5H324L312.759 25H292L302.38 5Z" fill="black"/>
<path d="M334.38 5H356L344.759 25H324L334.38 5Z" fill="black"/>
<path d="M270.38 5H292L280.759 25H260L270.38 5Z" fill="black"/>
<path d="M238.38 5H260L248.759 25H228L238.38 5Z" fill="black"/>
<path d="M206.38 5H228L216.759 25H196L206.38 5Z" fill="black"/>
<path d="M174.38 5H196L184.759 25H164L174.38 5Z" fill="black"/>
<path d="M142.38 5H164L152.759 25H132L142.38 5Z" fill="black"/>
<path d="M110.38 5H132L120.759 25H100L110.38 5Z" fill="black"/>
<path d="M78.3795 5H100L88.7591 25H68L78.3795 5Z" fill="black"/>
<path d="M365.38 5H387L375.759 25H355L365.38 5Z" fill="black"/>
<path d="M621.38 5H643L631.759 25H611L621.38 5Z" fill="black"/>
<path d="M653.38 5H675L663.759 25H643L653.38 5Z" fill="black"/>
<path d="M589.38 5H611L599.759 25H579L589.38 5Z" fill="black"/>
<path d="M557.38 5H579L567.759 25H547L557.38 5Z" fill="black"/>
<path d="M525.38 5H547L535.759 25H515L525.38 5Z" fill="black"/>
<path d="M493.38 5H515L503.759 25H483L493.38 5Z" fill="black"/>
<path d="M461.38 5H483L471.759 25H451L461.38 5Z" fill="black"/>
<path d="M429.38 5H451L439.759 25H419L429.38 5Z" fill="black"/>
<path d="M397.38 5H419L407.759 25H387L397.38 5Z" fill="black"/>
<path d="M685.38 5H707L695.759 25H675L685.38 5Z" fill="black"/>
<path d="M941.38 5H963L951.759 25H931L941.38 5Z" fill="black"/>
<path d="M973.38 5H995L983.759 25H963L973.38 5Z" fill="black"/>
<path d="M909.38 5H931L919.759 25H899L909.38 5Z" fill="black"/>
<path d="M877.38 5H899L887.759 25H867L877.38 5Z" fill="black"/>
<path d="M845.38 5H867L855.759 25H835L845.38 5Z" fill="black"/>
<path d="M813.38 5H835L823.759 25H803L813.38 5Z" fill="black"/>
<path d="M781.38 5H803L791.759 25H771L781.38 5Z" fill="black"/>
<path d="M749.38 5H771L759.759 25H739L749.38 5Z" fill="black"/>
<path d="M717.38 5H739L727.759 25H707L717.38 5Z" fill="black"/>
<path d="M1005.38 5H1027L1015.76 25H995L1005.38 5Z" fill="black"/>
<path d="M1261.38 5H1283L1271.76 25H1251L1261.38 5Z" fill="black"/>
<path d="M1293.38 5H1315L1303.76 25H1283L1293.38 5Z" fill="black"/>
<path d="M1229.38 5H1251L1239.76 25H1219L1229.38 5Z" fill="black"/>
<path d="M1197.38 5H1219L1207.76 25H1187L1197.38 5Z" fill="black"/>
<path d="M1165.38 5H1187L1175.76 25H1155L1165.38 5Z" fill="black"/>
<path d="M1133.38 5H1155L1143.76 25H1123L1133.38 5Z" fill="black"/>
<path d="M1101.38 5H1123L1111.76 25H1091L1101.38 5Z" fill="black"/>
<path d="M1069.38 5H1091L1079.76 25H1059L1069.38 5Z" fill="black"/>
<path d="M1037.38 5H1059L1047.76 25H1027L1037.38 5Z" fill="black"/>
<path d="M1005.38 5H1027L1015.76 25H995L1005.38 5Z" fill="black"/>
<path d="M1261.38 5H1283L1271.76 25H1251L1261.38 5Z" fill="black"/>
<path d="M1293.38 5H1315L1303.76 25H1283L1293.38 5Z" fill="black"/>
<path d="M1229.38 5H1251L1239.76 25H1219L1229.38 5Z" fill="black"/>
<path d="M1197.38 5H1219L1207.76 25H1187L1197.38 5Z" fill="black"/>
<path d="M1165.38 5H1187L1175.76 25H1155L1165.38 5Z" fill="black"/>
<path d="M1133.38 5H1155L1143.76 25H1123L1133.38 5Z" fill="black"/>
<path d="M1101.38 5H1123L1111.76 25H1091L1101.38 5Z" fill="black"/>
<path d="M1069.38 5H1091L1079.76 25H1059L1069.38 5Z" fill="black"/>
<path d="M1037.38 5H1059L1047.76 25H1027L1037.38 5Z" fill="black"/>
<path d="M1325.38 5H1347L1335.76 25H1315L1325.38 5Z" fill="black"/>
<path d="M1357.38 5H1379L1367.76 25H1347L1357.38 5Z" fill="black"/>
<path d="M1389.38 5H1411L1399.76 25H1379L1389.38 5Z" fill="black"/>
<path d="M1418.38 5H1440L1428.76 25H1408L1418.38 5Z" fill="black"/>
<path d="M14.3795 5H36L24.7591 25H4L14.3795 5Z" fill="black"/>
<path d="M46.3795 179H68L56.7591 199H36L46.3795 179Z" fill="black"/>
<path d="M302.38 179H324L312.759 199H292L302.38 179Z" fill="black"/>
<path d="M334.38 179H356L344.759 199H324L334.38 179Z" fill="black"/>
<path d="M270.38 179H292L280.759 199H260L270.38 179Z" fill="black"/>
<path d="M238.38 179H260L248.759 199H228L238.38 179Z" fill="black"/>
<path d="M206.38 179H228L216.759 199H196L206.38 179Z" fill="black"/>
<path d="M174.38 179H196L184.759 199H164L174.38 179Z" fill="black"/>
<path d="M142.38 179H164L152.759 199H132L142.38 179Z" fill="black"/>
<path d="M110.38 179H132L120.759 199H100L110.38 179Z" fill="black"/>
<path d="M78.3795 179H100L88.7591 199H68L78.3795 179Z" fill="black"/>
<path d="M365.38 179H387L375.759 199H355L365.38 179Z" fill="black"/>
<path d="M621.38 179H643L631.759 199H611L621.38 179Z" fill="black"/>
<path d="M653.38 179H675L663.759 199H643L653.38 179Z" fill="black"/>
<path d="M589.38 179H611L599.759 199H579L589.38 179Z" fill="black"/>
<path d="M557.38 179H579L567.759 199H547L557.38 179Z" fill="black"/>
<path d="M525.38 179H547L535.759 199H515L525.38 179Z" fill="black"/>
<path d="M493.38 179H515L503.759 199H483L493.38 179Z" fill="black"/>
<path d="M461.38 179H483L471.759 199H451L461.38 179Z" fill="black"/>
<path d="M429.38 179H451L439.759 199H419L429.38 179Z" fill="black"/>
<path d="M397.38 179H419L407.759 199H387L397.38 179Z" fill="black"/>
<path d="M685.38 179H707L695.759 199H675L685.38 179Z" fill="black"/>
<path d="M941.38 179H963L951.759 199H931L941.38 179Z" fill="black"/>
<path d="M973.38 179H995L983.759 199H963L973.38 179Z" fill="black"/>
<path d="M909.38 179H931L919.759 199H899L909.38 179Z" fill="black"/>
<path d="M877.38 179H899L887.759 199H867L877.38 179Z" fill="black"/>
<path d="M845.38 179H867L855.759 199H835L845.38 179Z" fill="black"/>
<path d="M813.38 179H835L823.759 199H803L813.38 179Z" fill="black"/>
<path d="M781.38 179H803L791.759 199H771L781.38 179Z" fill="black"/>
<path d="M749.38 179H771L759.759 199H739L749.38 179Z" fill="black"/>
<path d="M717.38 179H739L727.759 199H707L717.38 179Z" fill="black"/>
<path d="M1005.38 179H1027L1015.76 199H995L1005.38 179Z" fill="black"/>
<path d="M1261.38 179H1283L1271.76 199H1251L1261.38 179Z" fill="black"/>
<path d="M1293.38 179H1315L1303.76 199H1283L1293.38 179Z" fill="black"/>
<path d="M1229.38 179H1251L1239.76 199H1219L1229.38 179Z" fill="black"/>
<path d="M1197.38 179H1219L1207.76 199H1187L1197.38 179Z" fill="black"/>
<path d="M1165.38 179H1187L1175.76 199H1155L1165.38 179Z" fill="black"/>
<path d="M1133.38 179H1155L1143.76 199H1123L1133.38 179Z" fill="black"/>
<path d="M1101.38 179H1123L1111.76 199H1091L1101.38 179Z" fill="black"/>
<path d="M1069.38 179H1091L1079.76 199H1059L1069.38 179Z" fill="black"/>
<path d="M1037.38 179H1059L1047.76 199H1027L1037.38 179Z" fill="black"/>
<path d="M1005.38 179H1027L1015.76 199H995L1005.38 179Z" fill="black"/>
<path d="M1261.38 179H1283L1271.76 199H1251L1261.38 179Z" fill="black"/>
<path d="M1293.38 179H1315L1303.76 199H1283L1293.38 179Z" fill="black"/>
<path d="M1229.38 179H1251L1239.76 199H1219L1229.38 179Z" fill="black"/>
<path d="M1197.38 179H1219L1207.76 199H1187L1197.38 179Z" fill="black"/>
<path d="M1165.38 179H1187L1175.76 199H1155L1165.38 179Z" fill="black"/>
<path d="M1133.38 179H1155L1143.76 199H1123L1133.38 179Z" fill="black"/>
<path d="M1101.38 179H1123L1111.76 199H1091L1101.38 179Z" fill="black"/>
<path d="M1069.38 179H1091L1079.76 199H1059L1069.38 179Z" fill="black"/>
<path d="M1037.38 179H1059L1047.76 199H1027L1037.38 179Z" fill="black"/>
<path d="M1325.38 179H1347L1335.76 199H1315L1325.38 179Z" fill="black"/>
<path d="M1357.38 179H1379L1367.76 199H1347L1357.38 179Z" fill="black"/>
<path d="M1389.38 179H1411L1399.76 199H1379L1389.38 179Z" fill="black"/>
<path d="M1418.38 179H1440L1428.76 199H1408L1418.38 179Z" fill="black"/>
<path d="M14.3795 179H36L24.7591 199H4L14.3795 179Z" fill="black"/>
</svg>
