<svg width="142" height="39" viewBox="0 0 142 39" fill="none" xmlns="http://www.w3.org/2000/svg">
<g filter="url(#filter0_d)">
<mask id="path-1-outside-1" maskUnits="userSpaceOnUse" x="3" y="0" width="139" height="36" fill="black">
<rect fill="white" x="3" width="139" height="36"/>
<path d="M16.95 16.17H18.06C18.6 16.17 19.11 16.2 19.68 16.26V13.23C19.2 13.29 18.84 13.32 18.06 13.32H16.95V12.06H18.06C18.63 12.06 19.11 12.09 19.68 12.15V9.15C19.14 9.21 18.69 9.24 18.06 9.24H16.95V8.01H18.18C18.9 8.01 19.59 8.04 20.25 8.07V4.17C19.29 4.29 18.33 4.35 16.77 4.35H10.5C9.21 4.35 8.46 4.32 7.2 4.2C7.32 5.4 7.35 6.03 7.35 7.32V17.61C7.35 18.6 7.29 19.8 7.2 20.88C8.1 20.79 8.49 20.76 9.24 20.76H16.44C16.41 23.16 16.38 24.12 16.29 25.2C16.08 23.52 15.9 22.65 15.39 21.21L14.22 21.6C14.67 23.4 14.76 23.79 14.94 25.86L16.29 25.26C16.05 27.15 15.78 27.54 14.7 27.54C14.28 27.54 13.89 27.48 13.05 27.36C13.56 28.98 13.74 29.91 13.86 31.62C14.07 31.62 14.22 31.62 14.34 31.62C15.63 31.62 16.8 31.44 17.4 31.17C18.42 30.69 18.84 30.06 19.26 28.44C19.77 26.52 20.01 23.76 20.1 19.41C20.13 18.03 20.13 17.79 20.19 17.34C19.56 17.43 19.11 17.46 18.03 17.46H16.95V16.17ZM13.05 16.17V17.46H11.37V16.17H13.05ZM13.05 13.32H11.37V12.06H13.05V13.32ZM13.05 9.24H11.37V8.01H13.05V9.24ZM23.55 8.67C22.65 8.67 21.54 8.61 20.46 8.49V13.14C21.36 13.02 22.38 12.96 23.58 12.96H25.02V17.22H23.94C22.74 17.22 21.84 17.16 20.91 17.07V21.54C21.84 21.45 22.83 21.39 23.97 21.39H25.02V26.49H23.58C22.44 26.49 21.03 26.43 19.98 26.31V30.93C20.85 30.81 22.17 30.75 23.58 30.75H31.08C32.49 30.75 33.6 30.81 34.65 30.93V26.31C33.54 26.43 32.22 26.49 31.08 26.49H29.52V21.39H30.75C31.86 21.39 32.88 21.45 33.81 21.54V17.07C32.85 17.16 31.95 17.22 30.75 17.22H29.52V12.96H31.26C32.34 12.96 33.39 13.02 34.26 13.11V8.49C33.33 8.61 32.49 8.67 31.17 8.67H29.52L31.59 6.69C29.49 5.22 27.75 4.23 25.41 3.21L22.14 6.15C24 6.99 25.29 7.71 26.7 8.67H23.55ZM7.32 21.3C7.23 24.84 6.87 27.03 6 29.22L8.55 30.6C9.24 28.5 9.63 25.68 9.78 21.87L7.32 21.3ZM10.14 21.87C10.26 23.37 10.29 23.97 10.29 25.38C10.29 27 10.26 27.87 10.11 29.7L12.21 29.31C12.24 28.71 12.24 28.23 12.24 27.93C12.24 25.77 12.12 23.7 11.82 21.57L10.14 21.87ZM12.27 21.75C12.63 23.58 12.72 24.51 12.87 27.12L14.46 26.67C14.04 22.95 14.04 22.95 13.68 21.39L12.27 21.75Z"/>
<path d="M45.15 5.67C43.56 5.67 42.21 5.61 41.28 5.49V9.81C42.36 9.69 43.56 9.63 45 9.63H52.5V10.71H46.8C45.03 10.71 44.43 10.68 43.56 10.59C43.65 11.64 43.68 12.27 43.68 13.53V19.83C43.68 21.12 43.65 21.69 43.56 22.77C44.46 22.68 45.09 22.65 46.83 22.65H52.5V23.79H45.09C43.23 23.79 42.12 23.73 41.22 23.61V28.05C42.12 27.93 43.38 27.87 45.15 27.87H52.5C52.5 29.64 52.47 30.21 52.29 31.47H57.42C57.27 30.36 57.21 29.49 57.21 27.87H64.83C66.69 27.87 67.77 27.93 68.76 28.05V23.61C67.89 23.73 66.81 23.79 64.95 23.79H57.21V22.65H63.18C64.98 22.65 65.52 22.68 66.45 22.77C66.36 21.66 66.33 21.24 66.33 19.83V13.53C66.33 12.12 66.36 11.7 66.45 10.59C65.58 10.68 65.01 10.71 63.21 10.71H57.21V9.63H64.98C66.45 9.63 67.56 9.69 68.7 9.81V5.49C67.77 5.61 66.72 5.67 64.83 5.67H57.21C57.21 4.77 57.27 4.26 57.39 3.39H52.32C52.44 4.26 52.47 4.77 52.5 5.67H45.15ZM52.5 14.01V15.18H48.21V14.01H52.5ZM52.5 18.18V19.35H48.21V18.18H52.5ZM57.21 19.35V18.18H61.8V19.35H57.21ZM57.21 15.18V14.01H61.8V15.18H57.21Z"/>
<path d="M85.23 8.7C84.39 8.7 84.24 8.7 83.91 8.7C82.32 6.78 81.03 5.52 78.6 3.54L75.21 6.78C77.55 8.79 78.78 10.05 80.61 12.42L82.98 10.08V11.85C83.82 11.76 84.24 11.76 85.92 11.76H100.74C101.97 11.76 102.6 11.79 103.47 11.88V8.58C102.81 8.67 102.3 8.7 101.43 8.7H100.92V7.59C100.92 6.15 100.95 5.64 101.04 4.56C100.08 4.65 99.36 4.68 97.95 4.68H93.6C93.72 4.47 93.72 4.44 93.78 4.26C93.93 3.87 93.93 3.81 93.99 3.72C94.14 3.42 94.14 3.42 94.2 3.3L89.58 3C89.37 3.69 89.28 3.93 88.98 4.68H87.18C85.92 4.68 85.29 4.65 84.48 4.56V7.83C85.14 7.77 85.56 7.74 86.43 7.74H87.57C87.36 8.13 87.33 8.19 87.03 8.7H85.23ZM91.83 8.7C92.04 8.31 92.07 8.22 92.31 7.74H96.51V8.7H91.83ZM83.79 25.86C83.4 25.53 83.28 25.38 82.98 24.84V17.79C82.98 15.63 82.98 15.24 83.07 14.43C82.38 14.49 82.02 14.52 80.79 14.52H77.91C76.74 14.52 76.26 14.49 75.42 14.37V18.9C76.2 18.78 76.62 18.75 77.28 18.75H78.54V24.45C77.31 25.47 75.81 26.4 74.88 26.73L76.83 31.5C77.1 31.32 77.1 31.32 77.64 30.96C78.66 30.3 79.47 29.67 80.88 28.44C81.87 29.55 82.86 30.21 84.12 30.63C85.59 31.11 87.69 31.26 92.67 31.26C96.09 31.26 100.35 31.2 103.02 31.11C103.32 28.95 103.59 27.9 104.13 26.49C101.76 26.73 100.29 26.82 97.53 26.91V25.8H100.53C102.06 25.8 102.57 25.83 103.17 25.89V22.62C102.42 22.71 101.76 22.74 100.62 22.74H97.53V21.69H99.9C101.07 21.69 101.67 21.72 102.42 21.81V18.75C101.82 18.81 101.37 18.84 99.84 18.84H97.53V18.06H99.42C100.65 18.06 100.8 18.06 101.64 18.09C101.55 17.13 101.55 16.98 101.55 15.99V14.61C101.55 13.68 101.58 13.17 101.64 12.48C101.04 12.54 100.77 12.54 99.39 12.54H87.06C85.92 12.54 85.44 12.54 84.81 12.48C84.84 12.96 84.87 13.5 84.87 14.64V15.96C84.87 17.16 84.87 17.55 84.81 18.12C85.53 18.06 85.95 18.06 87.06 18.06H93.18V18.84H86.61C85.23 18.84 84.81 18.81 84.27 18.75V21.75C84.75 21.69 85.05 21.69 85.92 21.69V22.74H85.5C84.57 22.74 84.24 22.74 83.79 22.65V25.86ZM93.18 25.8V27C92.82 27 91.5 27.03 91.44 27.03C86.37 27.03 84.96 26.82 83.79 25.89C84.39 25.8 84.87 25.8 86.34 25.8H93.18ZM90.18 21.69H93.18V22.74H90.18V21.69ZM89.19 14.82H97.11V15.78H89.19V14.82Z"/>
<path d="M133.62 11.43C132.81 11.55 132 11.58 130.23 11.58H117.84V8.79H133.26C135.09 8.79 136.26 8.85 137.28 8.97V4.23C136.26 4.35 135.12 4.41 133.26 4.41H116.4C114.99 4.41 114.12 4.38 112.95 4.26C113.07 5.37 113.13 7.17 113.13 9.18C113.13 15.12 112.77 19.47 111.99 22.53C111.51 24.57 110.76 26.22 109.59 27.96C111.3 29.34 112.02 30.09 113.25 31.77C114.3 30.18 114.75 29.37 115.47 27.57C116.52 29.01 117.03 30.06 117.66 31.86C121.38 30.66 123.78 29.49 126.42 27.54C129.09 29.52 131.76 30.69 135.9 31.68C137.22 28.62 137.4 28.23 138.36 26.76C134.82 26.28 132.39 25.5 130.05 24.15C132.27 21.63 133.8 18.96 135.09 15.42C135.48 14.37 135.48 14.34 135.69 13.86L133.62 11.43ZM118.35 15.78C118.89 17.43 119.07 17.97 119.49 18.87C120.42 20.85 121.53 22.59 122.88 24.21C120.69 25.62 118.71 26.43 115.62 27.24C116.82 24.15 117.42 20.91 117.72 15.78H118.35ZM129.81 15.78C128.88 18.21 128.07 19.53 126.45 21.3C124.95 19.65 123.99 18.03 123.18 15.78H129.81Z"/>
</mask>
<path d="M16.95 16.17H18.06C18.6 16.17 19.11 16.2 19.68 16.26V13.23C19.2 13.29 18.84 13.32 18.06 13.32H16.95V12.06H18.06C18.63 12.06 19.11 12.09 19.68 12.15V9.15C19.14 9.21 18.69 9.24 18.06 9.24H16.95V8.01H18.18C18.9 8.01 19.59 8.04 20.25 8.07V4.17C19.29 4.29 18.33 4.35 16.77 4.35H10.5C9.21 4.35 8.46 4.32 7.2 4.2C7.32 5.4 7.35 6.03 7.35 7.32V17.61C7.35 18.6 7.29 19.8 7.2 20.88C8.1 20.79 8.49 20.76 9.24 20.76H16.44C16.41 23.16 16.38 24.12 16.29 25.2C16.08 23.52 15.9 22.65 15.39 21.21L14.22 21.6C14.67 23.4 14.76 23.79 14.94 25.86L16.29 25.26C16.05 27.15 15.78 27.54 14.7 27.54C14.28 27.54 13.89 27.48 13.05 27.36C13.56 28.98 13.74 29.91 13.86 31.62C14.07 31.62 14.22 31.62 14.34 31.62C15.63 31.62 16.8 31.44 17.4 31.17C18.42 30.69 18.84 30.06 19.26 28.44C19.77 26.52 20.01 23.76 20.1 19.41C20.13 18.03 20.13 17.79 20.19 17.34C19.56 17.43 19.11 17.46 18.03 17.46H16.95V16.17ZM13.05 16.17V17.46H11.37V16.17H13.05ZM13.05 13.32H11.37V12.06H13.05V13.32ZM13.05 9.24H11.37V8.01H13.05V9.24ZM23.55 8.67C22.65 8.67 21.54 8.61 20.46 8.49V13.14C21.36 13.02 22.38 12.96 23.58 12.96H25.02V17.22H23.94C22.74 17.22 21.84 17.16 20.91 17.07V21.54C21.84 21.45 22.83 21.39 23.97 21.39H25.02V26.49H23.58C22.44 26.49 21.03 26.43 19.98 26.31V30.93C20.85 30.81 22.17 30.75 23.58 30.75H31.08C32.49 30.75 33.6 30.81 34.65 30.93V26.31C33.54 26.43 32.22 26.49 31.08 26.49H29.52V21.39H30.75C31.86 21.39 32.88 21.45 33.81 21.54V17.07C32.85 17.16 31.95 17.22 30.75 17.22H29.52V12.96H31.26C32.34 12.96 33.39 13.02 34.26 13.11V8.49C33.33 8.61 32.49 8.67 31.17 8.67H29.52L31.59 6.69C29.49 5.22 27.75 4.23 25.41 3.21L22.14 6.15C24 6.99 25.29 7.71 26.7 8.67H23.55ZM7.32 21.3C7.23 24.84 6.87 27.03 6 29.22L8.55 30.6C9.24 28.5 9.63 25.68 9.78 21.87L7.32 21.3ZM10.14 21.87C10.26 23.37 10.29 23.97 10.29 25.38C10.29 27 10.26 27.87 10.11 29.7L12.21 29.31C12.24 28.71 12.24 28.23 12.24 27.93C12.24 25.77 12.12 23.7 11.82 21.57L10.14 21.87ZM12.27 21.75C12.63 23.58 12.72 24.51 12.87 27.12L14.46 26.67C14.04 22.95 14.04 22.95 13.68 21.39L12.27 21.75Z" fill="black"/>
<path d="M45.15 5.67C43.56 5.67 42.21 5.61 41.28 5.49V9.81C42.36 9.69 43.56 9.63 45 9.63H52.5V10.71H46.8C45.03 10.71 44.43 10.68 43.56 10.59C43.65 11.64 43.68 12.27 43.68 13.53V19.83C43.68 21.12 43.65 21.69 43.56 22.77C44.46 22.68 45.09 22.65 46.83 22.65H52.5V23.79H45.09C43.23 23.79 42.12 23.73 41.22 23.61V28.05C42.12 27.93 43.38 27.87 45.15 27.87H52.5C52.5 29.64 52.47 30.21 52.29 31.47H57.42C57.27 30.36 57.21 29.49 57.21 27.87H64.83C66.69 27.87 67.77 27.93 68.76 28.05V23.61C67.89 23.73 66.81 23.79 64.95 23.79H57.21V22.65H63.18C64.98 22.65 65.52 22.68 66.45 22.77C66.36 21.66 66.33 21.24 66.33 19.83V13.53C66.33 12.12 66.36 11.7 66.45 10.59C65.58 10.68 65.01 10.71 63.21 10.71H57.21V9.63H64.98C66.45 9.63 67.56 9.69 68.7 9.81V5.49C67.77 5.61 66.72 5.67 64.83 5.67H57.21C57.21 4.77 57.27 4.26 57.39 3.39H52.32C52.44 4.26 52.47 4.77 52.5 5.67H45.15ZM52.5 14.01V15.18H48.21V14.01H52.5ZM52.5 18.18V19.35H48.21V18.18H52.5ZM57.21 19.35V18.18H61.8V19.35H57.21ZM57.21 15.18V14.01H61.8V15.18H57.21Z" fill="black"/>
<path d="M85.23 8.7C84.39 8.7 84.24 8.7 83.91 8.7C82.32 6.78 81.03 5.52 78.6 3.54L75.21 6.78C77.55 8.79 78.78 10.05 80.61 12.42L82.98 10.08V11.85C83.82 11.76 84.24 11.76 85.92 11.76H100.74C101.97 11.76 102.6 11.79 103.47 11.88V8.58C102.81 8.67 102.3 8.7 101.43 8.7H100.92V7.59C100.92 6.15 100.95 5.64 101.04 4.56C100.08 4.65 99.36 4.68 97.95 4.68H93.6C93.72 4.47 93.72 4.44 93.78 4.26C93.93 3.87 93.93 3.81 93.99 3.72C94.14 3.42 94.14 3.42 94.2 3.3L89.58 3C89.37 3.69 89.28 3.93 88.98 4.68H87.18C85.92 4.68 85.29 4.65 84.48 4.56V7.83C85.14 7.77 85.56 7.74 86.43 7.74H87.57C87.36 8.13 87.33 8.19 87.03 8.7H85.23ZM91.83 8.7C92.04 8.31 92.07 8.22 92.31 7.74H96.51V8.7H91.83ZM83.79 25.86C83.4 25.53 83.28 25.38 82.98 24.84V17.79C82.98 15.63 82.98 15.24 83.07 14.43C82.38 14.49 82.02 14.52 80.79 14.52H77.91C76.74 14.52 76.26 14.49 75.42 14.37V18.9C76.2 18.78 76.62 18.75 77.28 18.75H78.54V24.45C77.31 25.47 75.81 26.4 74.88 26.73L76.83 31.5C77.1 31.32 77.1 31.32 77.64 30.96C78.66 30.3 79.47 29.67 80.88 28.44C81.87 29.55 82.86 30.21 84.12 30.63C85.59 31.11 87.69 31.26 92.67 31.26C96.09 31.26 100.35 31.2 103.02 31.11C103.32 28.95 103.59 27.9 104.13 26.49C101.76 26.73 100.29 26.82 97.53 26.91V25.8H100.53C102.06 25.8 102.57 25.83 103.17 25.89V22.62C102.42 22.71 101.76 22.74 100.62 22.74H97.53V21.69H99.9C101.07 21.69 101.67 21.72 102.42 21.81V18.75C101.82 18.81 101.37 18.84 99.84 18.84H97.53V18.06H99.42C100.65 18.06 100.8 18.06 101.64 18.09C101.55 17.13 101.55 16.98 101.55 15.99V14.61C101.55 13.68 101.58 13.17 101.64 12.48C101.04 12.54 100.77 12.54 99.39 12.54H87.06C85.92 12.54 85.44 12.54 84.81 12.48C84.84 12.96 84.87 13.5 84.87 14.64V15.96C84.87 17.16 84.87 17.55 84.81 18.12C85.53 18.06 85.95 18.06 87.06 18.06H93.18V18.84H86.61C85.23 18.84 84.81 18.81 84.27 18.75V21.75C84.75 21.69 85.05 21.69 85.92 21.69V22.74H85.5C84.57 22.74 84.24 22.74 83.79 22.65V25.86ZM93.18 25.8V27C92.82 27 91.5 27.03 91.44 27.03C86.37 27.03 84.96 26.82 83.79 25.89C84.39 25.8 84.87 25.8 86.34 25.8H93.18ZM90.18 21.69H93.18V22.74H90.18V21.69ZM89.19 14.82H97.11V15.78H89.19V14.82Z" fill="black"/>
<path d="M133.62 11.43C132.81 11.55 132 11.58 130.23 11.58H117.84V8.79H133.26C135.09 8.79 136.26 8.85 137.28 8.97V4.23C136.26 4.35 135.12 4.41 133.26 4.41H116.4C114.99 4.41 114.12 4.38 112.95 4.26C113.07 5.37 113.13 7.17 113.13 9.18C113.13 15.12 112.77 19.47 111.99 22.53C111.51 24.57 110.76 26.22 109.59 27.96C111.3 29.34 112.02 30.09 113.25 31.77C114.3 30.18 114.75 29.37 115.47 27.57C116.52 29.01 117.03 30.06 117.66 31.86C121.38 30.66 123.78 29.49 126.42 27.54C129.09 29.52 131.76 30.69 135.9 31.68C137.22 28.62 137.4 28.23 138.36 26.76C134.82 26.28 132.39 25.5 130.05 24.15C132.27 21.63 133.8 18.96 135.09 15.42C135.48 14.37 135.48 14.34 135.69 13.86L133.62 11.43ZM118.35 15.78C118.89 17.43 119.07 17.97 119.49 18.87C120.42 20.85 121.53 22.59 122.88 24.21C120.69 25.62 118.71 26.43 115.62 27.24C116.82 24.15 117.42 20.91 117.72 15.78H118.35ZM129.81 15.78C128.88 18.21 128.07 19.53 126.45 21.3C124.95 19.65 123.99 18.03 123.18 15.78H129.81Z" fill="black"/>
<path d="M16.95 16.17H18.06C18.6 16.17 19.11 16.2 19.68 16.26V13.23C19.2 13.29 18.84 13.32 18.06 13.32H16.95V12.06H18.06C18.63 12.06 19.11 12.09 19.68 12.15V9.15C19.14 9.21 18.69 9.24 18.06 9.24H16.95V8.01H18.18C18.9 8.01 19.59 8.04 20.25 8.07V4.17C19.29 4.29 18.33 4.35 16.77 4.35H10.5C9.21 4.35 8.46 4.32 7.2 4.2C7.32 5.4 7.35 6.03 7.35 7.32V17.61C7.35 18.6 7.29 19.8 7.2 20.88C8.1 20.79 8.49 20.76 9.24 20.76H16.44C16.41 23.16 16.38 24.12 16.29 25.2C16.08 23.52 15.9 22.65 15.39 21.21L14.22 21.6C14.67 23.4 14.76 23.79 14.94 25.86L16.29 25.26C16.05 27.15 15.78 27.54 14.7 27.54C14.28 27.54 13.89 27.48 13.05 27.36C13.56 28.98 13.74 29.91 13.86 31.62C14.07 31.62 14.22 31.62 14.34 31.62C15.63 31.62 16.8 31.44 17.4 31.17C18.42 30.69 18.84 30.06 19.26 28.44C19.77 26.52 20.01 23.76 20.1 19.41C20.13 18.03 20.13 17.79 20.19 17.34C19.56 17.43 19.11 17.46 18.03 17.46H16.95V16.17ZM13.05 16.17V17.46H11.37V16.17H13.05ZM13.05 13.32H11.37V12.06H13.05V13.32ZM13.05 9.24H11.37V8.01H13.05V9.24ZM23.55 8.67C22.65 8.67 21.54 8.61 20.46 8.49V13.14C21.36 13.02 22.38 12.96 23.58 12.96H25.02V17.22H23.94C22.74 17.22 21.84 17.16 20.91 17.07V21.54C21.84 21.45 22.83 21.39 23.97 21.39H25.02V26.49H23.58C22.44 26.49 21.03 26.43 19.98 26.31V30.93C20.85 30.81 22.17 30.75 23.58 30.75H31.08C32.49 30.75 33.6 30.81 34.65 30.93V26.31C33.54 26.43 32.22 26.49 31.08 26.49H29.52V21.39H30.75C31.86 21.39 32.88 21.45 33.81 21.54V17.07C32.85 17.16 31.95 17.22 30.75 17.22H29.52V12.96H31.26C32.34 12.96 33.39 13.02 34.26 13.11V8.49C33.33 8.61 32.49 8.67 31.17 8.67H29.52L31.59 6.69C29.49 5.22 27.75 4.23 25.41 3.21L22.14 6.15C24 6.99 25.29 7.71 26.7 8.67H23.55ZM7.32 21.3C7.23 24.84 6.87 27.03 6 29.22L8.55 30.6C9.24 28.5 9.63 25.68 9.78 21.87L7.32 21.3ZM10.14 21.87C10.26 23.37 10.29 23.97 10.29 25.38C10.29 27 10.26 27.87 10.11 29.7L12.21 29.31C12.24 28.71 12.24 28.23 12.24 27.93C12.24 25.77 12.12 23.7 11.82 21.57L10.14 21.87ZM12.27 21.75C12.63 23.58 12.72 24.51 12.87 27.12L14.46 26.67C14.04 22.95 14.04 22.95 13.68 21.39L12.27 21.75Z" stroke="white" stroke-width="4" mask="url(#path-1-outside-1)"/>
<path d="M45.15 5.67C43.56 5.67 42.21 5.61 41.28 5.49V9.81C42.36 9.69 43.56 9.63 45 9.63H52.5V10.71H46.8C45.03 10.71 44.43 10.68 43.56 10.59C43.65 11.64 43.68 12.27 43.68 13.53V19.83C43.68 21.12 43.65 21.69 43.56 22.77C44.46 22.68 45.09 22.65 46.83 22.65H52.5V23.79H45.09C43.23 23.79 42.12 23.73 41.22 23.61V28.05C42.12 27.93 43.38 27.87 45.15 27.87H52.5C52.5 29.64 52.47 30.21 52.29 31.47H57.42C57.27 30.36 57.21 29.49 57.21 27.87H64.83C66.69 27.87 67.77 27.93 68.76 28.05V23.61C67.89 23.73 66.81 23.79 64.95 23.79H57.21V22.65H63.18C64.98 22.65 65.52 22.68 66.45 22.77C66.36 21.66 66.33 21.24 66.33 19.83V13.53C66.33 12.12 66.36 11.7 66.45 10.59C65.58 10.68 65.01 10.71 63.21 10.71H57.21V9.63H64.98C66.45 9.63 67.56 9.69 68.7 9.81V5.49C67.77 5.61 66.72 5.67 64.83 5.67H57.21C57.21 4.77 57.27 4.26 57.39 3.39H52.32C52.44 4.26 52.47 4.77 52.5 5.67H45.15ZM52.5 14.01V15.18H48.21V14.01H52.5ZM52.5 18.18V19.35H48.21V18.18H52.5ZM57.21 19.35V18.18H61.8V19.35H57.21ZM57.21 15.18V14.01H61.8V15.18H57.21Z" stroke="white" stroke-width="4" mask="url(#path-1-outside-1)"/>
<path d="M85.23 8.7C84.39 8.7 84.24 8.7 83.91 8.7C82.32 6.78 81.03 5.52 78.6 3.54L75.21 6.78C77.55 8.79 78.78 10.05 80.61 12.42L82.98 10.08V11.85C83.82 11.76 84.24 11.76 85.92 11.76H100.74C101.97 11.76 102.6 11.79 103.47 11.88V8.58C102.81 8.67 102.3 8.7 101.43 8.7H100.92V7.59C100.92 6.15 100.95 5.64 101.04 4.56C100.08 4.65 99.36 4.68 97.95 4.68H93.6C93.72 4.47 93.72 4.44 93.78 4.26C93.93 3.87 93.93 3.81 93.99 3.72C94.14 3.42 94.14 3.42 94.2 3.3L89.58 3C89.37 3.69 89.28 3.93 88.98 4.68H87.18C85.92 4.68 85.29 4.65 84.48 4.56V7.83C85.14 7.77 85.56 7.74 86.43 7.74H87.57C87.36 8.13 87.33 8.19 87.03 8.7H85.23ZM91.83 8.7C92.04 8.31 92.07 8.22 92.31 7.74H96.51V8.7H91.83ZM83.79 25.86C83.4 25.53 83.28 25.38 82.98 24.84V17.79C82.98 15.63 82.98 15.24 83.07 14.43C82.38 14.49 82.02 14.52 80.79 14.52H77.91C76.74 14.52 76.26 14.49 75.42 14.37V18.9C76.2 18.78 76.62 18.75 77.28 18.75H78.54V24.45C77.31 25.47 75.81 26.4 74.88 26.73L76.83 31.5C77.1 31.32 77.1 31.32 77.64 30.96C78.66 30.3 79.47 29.67 80.88 28.44C81.87 29.55 82.86 30.21 84.12 30.63C85.59 31.11 87.69 31.26 92.67 31.26C96.09 31.26 100.35 31.2 103.02 31.11C103.32 28.95 103.59 27.9 104.13 26.49C101.76 26.73 100.29 26.82 97.53 26.91V25.8H100.53C102.06 25.8 102.57 25.83 103.17 25.89V22.62C102.42 22.71 101.76 22.74 100.62 22.74H97.53V21.69H99.9C101.07 21.69 101.67 21.72 102.42 21.81V18.75C101.82 18.81 101.37 18.84 99.84 18.84H97.53V18.06H99.42C100.65 18.06 100.8 18.06 101.64 18.09C101.55 17.13 101.55 16.98 101.55 15.99V14.61C101.55 13.68 101.58 13.17 101.64 12.48C101.04 12.54 100.77 12.54 99.39 12.54H87.06C85.92 12.54 85.44 12.54 84.81 12.48C84.84 12.96 84.87 13.5 84.87 14.64V15.96C84.87 17.16 84.87 17.55 84.81 18.12C85.53 18.06 85.95 18.06 87.06 18.06H93.18V18.84H86.61C85.23 18.84 84.81 18.81 84.27 18.75V21.75C84.75 21.69 85.05 21.69 85.92 21.69V22.74H85.5C84.57 22.74 84.24 22.74 83.79 22.65V25.86ZM93.18 25.8V27C92.82 27 91.5 27.03 91.44 27.03C86.37 27.03 84.96 26.82 83.79 25.89C84.39 25.8 84.87 25.8 86.34 25.8H93.18ZM90.18 21.69H93.18V22.74H90.18V21.69ZM89.19 14.82H97.11V15.78H89.19V14.82Z" stroke="white" stroke-width="4" mask="url(#path-1-outside-1)"/>
<path d="M133.62 11.43C132.81 11.55 132 11.58 130.23 11.58H117.84V8.79H133.26C135.09 8.79 136.26 8.85 137.28 8.97V4.23C136.26 4.35 135.12 4.41 133.26 4.41H116.4C114.99 4.41 114.12 4.38 112.95 4.26C113.07 5.37 113.13 7.17 113.13 9.18C113.13 15.12 112.77 19.47 111.99 22.53C111.51 24.57 110.76 26.22 109.59 27.96C111.3 29.34 112.02 30.09 113.25 31.77C114.3 30.18 114.75 29.37 115.47 27.57C116.52 29.01 117.03 30.06 117.66 31.86C121.38 30.66 123.78 29.49 126.42 27.54C129.09 29.52 131.76 30.69 135.9 31.68C137.22 28.62 137.4 28.23 138.36 26.76C134.82 26.28 132.39 25.5 130.05 24.15C132.27 21.63 133.8 18.96 135.09 15.42C135.48 14.37 135.48 14.34 135.69 13.86L133.62 11.43ZM118.35 15.78C118.89 17.43 119.07 17.97 119.49 18.87C120.42 20.85 121.53 22.59 122.88 24.21C120.69 25.62 118.71 26.43 115.62 27.24C116.82 24.15 117.42 20.91 117.72 15.78H118.35ZM129.81 15.78C128.88 18.21 128.07 19.53 126.45 21.3C124.95 19.65 123.99 18.03 123.18 15.78H129.81Z" stroke="white" stroke-width="4" mask="url(#path-1-outside-1)"/>
</g>
<defs>
<filter id="filter0_d" x="0.485207" y="0.862465" width="141.28" height="37.4087" filterUnits="userSpaceOnUse" color-interpolation-filters="sRGB">
<feFlood flood-opacity="0" result="BackgroundImageFix"/>
<feColorMatrix in="SourceAlpha" type="matrix" values="0 0 0 0 0 0 0 0 0 0 0 0 0 0 0 0 0 0 127 0"/>
<feOffset dx="-2" dy="2"/>
<feGaussianBlur stdDeviation="0.5"/>
<feColorMatrix type="matrix" values="0 0 0 0 0 0 0 0 0 0 0 0 0 0 0 0 0 0 0.25 0"/>
<feBlend mode="normal" in2="BackgroundImageFix" result="effect1_dropShadow"/>
<feBlend mode="normal" in="SourceGraphic" in2="effect1_dropShadow" result="shape"/>
</filter>
</defs>
</svg>
