<?xml version="1.0" encoding="UTF-8" standalone="no"?>
<svg
   xmlns:dc="http://purl.org/dc/elements/1.1/"
   xmlns:cc="http://creativecommons.org/ns#"
   xmlns:rdf="http://www.w3.org/1999/02/22-rdf-syntax-ns#"
   xmlns:svg="http://www.w3.org/2000/svg"
   xmlns="http://www.w3.org/2000/svg"
   viewBox="0 0 793.70667 793.70667"
   height="793.70667"
   width="793.70667"
   xml:space="preserve"
   id="svg2"
   version="1.1"><metadata
     id="metadata8"><rdf:RDF><cc:Work
         rdf:about=""><dc:format>image/svg+xml</dc:format><dc:type
           rdf:resource="http://purl.org/dc/dcmitype/StillImage" /></cc:Work></rdf:RDF></metadata><defs
     id="defs6" /><g
     transform="matrix(1.3333333,0,0,-1.3333333,0,793.70667)"
     id="g10"><g
       transform="scale(0.1)"
       id="g12"><path
         id="path14"
         style="fill:#211d1d;fill-opacity:1;fill-rule:nonzero;stroke:none"
         d="m 3404.54,5086.56 c 39.85,0 72.27,-32.42 72.27,-72.27 0,-39.85 -32.42,-72.27 -72.27,-72.27 -39.85,0 -72.27,32.42 -72.27,72.27 0,39.85 32.42,72.27 72.27,72.27 z m 0,-176.68 c 57.58,0 104.41,46.84 104.41,104.41 0,57.57 -46.83,104.41 -104.41,104.41 -57.57,0 -104.41,-46.84 -104.41,-104.41 0,-57.57 46.84,-104.41 104.41,-104.41" /><path
         id="path16"
         style="fill:#211d1d;fill-opacity:1;fill-rule:nonzero;stroke:none"
         d="m 3404.54,4976.63 c 20.81,0 37.67,16.86 37.67,37.66 0,20.8 -16.86,37.67 -37.67,37.67 -20.8,0 -37.66,-16.87 -37.66,-37.67 0,-20.8 16.86,-37.66 37.66,-37.66" /><path
         id="path18"
         style="fill:#211d1d;fill-opacity:1;fill-rule:nonzero;stroke:none"
         d="m 3251.34,5458.36 h 794.02 l 104.62,-163.49 74.82,-51.49 v -218.81 l -47.8,-1.22 c -4.47,34.78 -20.46,66.91 -45.93,91.78 -29.41,28.72 -68.2,44.53 -109.21,44.53 -80.39,0 -147.11,-61.33 -155.55,-139.66 l -305.32,-2.91 c -1.49,84.99 -71.1,153.67 -156.45,153.67 -86.27,0 -156.47,-70.19 -156.47,-156.47 0,-0.06 0,-0.13 0,-0.19 l -27.11,-0.26 -30.47,180.35 z m 31.75,-476.07 -2.03,17.73 c -0.56,4.9 -0.85,9.71 -0.85,14.27 0,68.56 55.78,124.33 124.33,124.33 68.56,0 124.34,-55.77 124.34,-124.33 0,-3.84 -0.2,-7.84 -0.59,-11.9 l -1.7,-17.78 370.86,3.54 0.1,15.82 c 0.42,68.13 56.19,123.55 124.31,123.55 32.57,0 63.38,-12.57 86.75,-35.39 23.33,-22.77 36.65,-53.2 37.49,-85.66 l 0.42,-16.06 110.42,2.83 v 267.04 l -83.38,57.38 -110.61,172.84 h -837.19 l -68.03,-295.34 36.11,-213.72 89.25,0.85" /><path
         id="path20"
         style="fill:#211d1d;fill-opacity:1;fill-rule:nonzero;stroke:none"
         d="m 3949.59,5003.19 c 0,39.85 32.42,72.27 72.27,72.27 39.85,0 72.27,-32.42 72.27,-72.27 0,-39.85 -32.42,-72.27 -72.27,-72.27 -39.85,0 -72.27,32.42 -72.27,72.27 z m 176.68,0 c 0,57.57 -46.84,104.41 -104.41,104.41 -57.57,0 -104.41,-46.84 -104.41,-104.41 0,-57.57 46.84,-104.41 104.41,-104.41 57.57,0 104.41,46.84 104.41,104.41" /><path
         id="path22"
         style="fill:#211d1d;fill-opacity:1;fill-rule:nonzero;stroke:none"
         d="m 4059.53,5003.19 c 0,20.8 -16.87,37.67 -37.67,37.67 -20.8,0 -37.66,-16.87 -37.66,-37.67 0,-20.8 16.86,-37.66 37.66,-37.66 20.8,0 37.67,16.86 37.67,37.66" /><path
         id="path24"
         style="fill:#211d1d;fill-opacity:1;fill-rule:nonzero;stroke:none"
         d="m 3458.4,5410.36 -0.39,5.5 h -172.85 l -25.34,-113.4 h 198.58 v 107.9" /><path
         id="path26"
         style="fill:#211d1d;fill-opacity:1;fill-rule:nonzero;stroke:none"
         d="m 4022.1,5415.86 h -165.77 v -113.4 h 238.34 l -72.57,113.4" /><path
         id="path28"
         style="fill:#211d1d;fill-opacity:1;fill-rule:nonzero;stroke:none"
         d="m 3790.52,5411.13 v 4.73 h -269.37 v -113.4 h 269.37 v 108.67" /><path
         id="path30"
         style="fill:#211d1d;fill-opacity:1;fill-rule:nonzero;stroke:none"
         d="m 3945.1,5223.25 h 73.47 v 32.14 h -73.47 v -32.14" /><path
         id="path32"
         style="fill:#211d1d;fill-opacity:1;fill-rule:nonzero;stroke:none"
         d="m 3608.39,5223.25 h 73.46 v 32.14 h -73.46 v -32.14" /><path
         id="path34"
         style="fill:#211d1d;fill-opacity:1;fill-rule:nonzero;stroke:none"
         d="m 1308.05,927.27 c -28.96,-8.258 -57.96,-13.11 -64.02,-14.071 h -117.86 -26.94 -26.94 -98.235 -32.106 -32.105 -328.649 c -4.035,0.641 -18.218,3.02 -35.617,6.961 l 10.078,19.66 h 20.973 v 32.141 h -20.043 l -9.945,19.398 c 16.757,4.661 30.504,7.692 34.964,8.651 h 329.629 32.11 32.101 95.765 26.94 26.94 119.05 c 5.9,-0.869 35.86,-5.471 65.5,-13.971 46.88,-13.437 57.14,-26.199 57.14,-29.969 -0.01,-0.121 -4.09,-13.211 -58.73,-28.8 z M 1127.78,790.141 v -19.84 h -32.77 c -6.36,2.719 -12.96,6.289 -17.21,9.211 4.24,3.269 11.01,7.386 17.63,10.629 z m -244.284,-249.422 -3.023,-1.207 198.747,341.547 h 18.82 z m 139.924,89.742 v -17.672 h -30.565 c -5.648,2.441 -11.48,5.563 -15.476,8.199 4.008,2.973 10.008,6.582 15.883,9.473 z M 823.953,516.84 931.539,881.059 H 1052.65 L 845.82,525.609 Z m 0,880.33 20.531,-8.24 207.616,-356.78 H 931.777 Z m 59.543,-23.89 215.054,-341.13 h -19.89 l -199.527,342.88 z m 109.359,-72.07 h 30.565 v -17.66 h -30.154 c -5.879,2.89 -11.879,6.49 -15.887,9.46 3.996,2.65 9.832,5.77 15.476,8.2 z m 102.175,-157.5 h 32.75 v -19.84 h -32.36 c -6.61,3.23 -13.38,7.34 -17.62,10.61 4.25,2.92 10.85,6.49 17.23,9.23 z M 491.348,971.961 h -50.274 l -0.711,2.949 -38.004,157.45 h 35.852 l 62.504,-121.88 7.387,-14.41 7.402,-14.429 4.965,-9.68 z m 22.379,-43.481 -7.45,-14.519 -7.433,-14.5 -60.633,-118.231 h -35.852 l 36.688,151.989 1.594,6.601 h 13.808 28.821 36.269 z m 804.773,88.46 c -35.09,10.06 -69.58,14.86 -71.03,15.06 l -1.08,0.15 h -109.85 l -37.56,59.58 h 60.94 v 84.12 h -71.11 l -2.83,-1.11 c -9.96,-3.91 -20.9,-9.19 -29.32,-15.88 l -58.34,92.55 h 57.24 v 81.94 h -68.927 l -2.828,-1.11 c -9.207,-3.61 -19.278,-8.45 -27.27,-14.55 l -51.402,81.55 -130.805,52.47 123.934,-419.56 H 578.32 l -1.582,-0.32 c -1.066,-0.22 -20.781,-4.26 -45.058,-11.3 l -73.832,143.97 h -96.313 l 46.477,-192.539 h -24.68 V 939.82 h 24.242 L 361.535,749.09 h 96.313 l 72.613,141.59 c 25.199,-6.09 45.973,-9.282 47.062,-9.438 l 1.2,-0.183 h 319.304 l -123.699,-418.758 130.805,52.469 51.402,81.543 c 7.992,-6.094 18.063,-10.934 27.27,-14.551 l 2.828,-1.114 h 68.927 v 81.954 h -57.24 l 58.34,92.539 c 8.43,-6.68 19.36,-11.969 29.32,-15.879 l 2.83,-1.114 h 71.11 v 84.133 h -60.94 l 37.05,58.778 h 110.46 l 1.2,0.171 c 1.44,0.219 35.84,5.469 70.85,15.61 54.84,15.89 80.38,34.699 80.38,59.211 0,25.449 -26.3,45.369 -80.42,60.889" /><path
         id="path36"
         style="fill:#211d1d;fill-opacity:1;fill-rule:nonzero;stroke:none"
         d="m 1334.6,957.672 c -0.03,0.539 -0.08,1.09 -0.15,1.598 -0.18,1 -0.41,2 -0.72,2.832 -0.61,1.75 -1.4,3.097 -2.19,4.257 -1.58,2.321 -3.3,3.84 -4.9,5.192 -3.22,2.648 -6.39,4.32 -9.45,5.789 -6.12,2.832 -11.93,4.402 -16.99,5.379 -10.11,1.941 -17.3,1.191 -17.3,1.191 0,0 1.27,-1.308 3.54,-3.308 2.27,-2 5.57,-4.692 9.49,-7.653 3.78,-2.808 8.2,-6.097 12.92,-9.617 1.08,-0.883 2.18,-1.703 3.2,-2.57 0.99,-0.871 1.95,-1.731 2.74,-2.532 0.41,-0.398 0.75,-0.808 1.03,-1.171 -0.39,-0.539 -0.88,-1.18 -1.52,-1.829 -1.67,-1.738 -3.77,-3.578 -5.91,-5.351 -4.32,-3.539 -8.78,-6.91 -12.61,-9.938 -3.84,-3.019 -7.09,-5.722 -9.35,-7.73 -1.14,-0.969 -2,-1.859 -2.61,-2.402 -0.6,-0.59 -0.92,-0.899 -0.92,-0.899 0,0 7.2,-0.758 17.31,1.422 5.07,1.09 10.86,2.84 16.9,5.848 1.52,0.75 3.03,1.601 4.57,2.582 1.54,0.968 3.1,2.039 4.64,3.347 1.53,1.34 3.15,2.782 4.66,4.86 0.75,1.082 1.51,2.211 2.17,3.711 0.34,0.691 0.64,1.59 0.9,2.422 0.15,0.57 0.29,1.25 0.39,1.878 l 0.1,0.801 0.03,0.309 0.03,0.301 v 0.078 l 0.02,0.703 v 0.098 l -0.02,0.402" /><path
         id="path38"
         style="fill:#211d1d;fill-opacity:1;fill-rule:nonzero;stroke:none"
         d="m 1192.45,921.18 h 17.76 v 11.98 h -17.76 v -11.98" /><path
         id="path40"
         style="fill:#211d1d;fill-opacity:1;fill-rule:nonzero;stroke:none"
         d="m 1158.17,921.18 h 17.76 v 11.98 h -17.76 v -11.98" /><path
         id="path42"
         style="fill:#211d1d;fill-opacity:1;fill-rule:nonzero;stroke:none"
         d="m 1123.89,921.18 h 17.76 v 11.98 h -17.76 v -11.98" /><path
         id="path44"
         style="fill:#211d1d;fill-opacity:1;fill-rule:nonzero;stroke:none"
         d="m 1089.6,933.16 v -11.98 h 17.76 v 11.98 h -8.04 -9.72" /><path
         id="path46"
         style="fill:#211d1d;fill-opacity:1;fill-rule:nonzero;stroke:none"
         d="m 1055.32,933.16 v -11.98 h 17.76 v 11.98 h -0.7 -17.06" /><path
         id="path48"
         style="fill:#211d1d;fill-opacity:1;fill-rule:nonzero;stroke:none"
         d="m 1026.85,933.16 h -5.81 v -11.98 h 17.76 v 11.98 h -3.65 -8.3" /><path
         id="path50"
         style="fill:#211d1d;fill-opacity:1;fill-rule:nonzero;stroke:none"
         d="m 986.762,921.18 h 17.758 v 11.98 h -17.758 v -11.98" /><path
         id="path52"
         style="fill:#211d1d;fill-opacity:1;fill-rule:nonzero;stroke:none"
         d="m 952.48,921.18 h 17.762 v 11.98 H 952.48 v -11.98" /><path
         id="path54"
         style="fill:#211d1d;fill-opacity:1;fill-rule:nonzero;stroke:none"
         d="m 918.199,921.18 h 17.762 v 11.98 h -17.762 v -11.98" /><path
         id="path56"
         style="fill:#211d1d;fill-opacity:1;fill-rule:nonzero;stroke:none"
         d="m 883.918,921.18 h 17.762 v 11.98 h -17.762 v -11.98" /><path
         id="path58"
         style="fill:#211d1d;fill-opacity:1;fill-rule:nonzero;stroke:none"
         d="m 849.637,921.18 h 17.761 v 11.98 h -17.761 v -11.98" /><path
         id="path60"
         style="fill:#211d1d;fill-opacity:1;fill-rule:nonzero;stroke:none"
         d="m 815.355,921.18 h 17.762 v 11.98 h -17.762 v -11.98" /><path
         id="path62"
         style="fill:#211d1d;fill-opacity:1;fill-rule:nonzero;stroke:none"
         d="m 781.074,921.18 h 17.762 v 11.98 h -17.762 v -11.98" /><path
         id="path64"
         style="fill:#211d1d;fill-opacity:1;fill-rule:nonzero;stroke:none"
         d="m 746.793,921.18 h 17.762 v 11.98 h -17.762 v -11.98" /><path
         id="path66"
         style="fill:#211d1d;fill-opacity:1;fill-rule:nonzero;stroke:none"
         d="m 712.512,921.18 h 17.761 v 11.98 h -17.761 v -11.98" /><path
         id="path68"
         style="fill:#211d1d;fill-opacity:1;fill-rule:nonzero;stroke:none"
         d="m 678.23,921.18 h 17.762 v 11.98 H 678.23 v -11.98" /><path
         id="path70"
         style="fill:#211d1d;fill-opacity:1;fill-rule:nonzero;stroke:none"
         d="m 643.949,921.18 h 17.762 v 11.98 h -17.762 v -11.98" /><path
         id="path72"
         style="fill:#211d1d;fill-opacity:1;fill-rule:nonzero;stroke:none"
         d="m 1192.45,978.391 h 17.76 v 11.98 h -17.76 v -11.98" /><path
         id="path74"
         style="fill:#211d1d;fill-opacity:1;fill-rule:nonzero;stroke:none"
         d="m 1158.17,978.391 h 17.76 v 11.98 h -17.76 v -11.98" /><path
         id="path76"
         style="fill:#211d1d;fill-opacity:1;fill-rule:nonzero;stroke:none"
         d="m 1123.89,978.391 h 17.76 v 11.98 h -17.76 v -11.98" /><path
         id="path78"
         style="fill:#211d1d;fill-opacity:1;fill-rule:nonzero;stroke:none"
         d="m 1089.6,978.391 h 17.76 v 11.98 h -17.76 v -11.98" /><path
         id="path80"
         style="fill:#211d1d;fill-opacity:1;fill-rule:nonzero;stroke:none"
         d="m 1055.32,990.371 v -11.98 h 17.76 v 11.98 h -14.83 -2.93" /><path
         id="path82"
         style="fill:#211d1d;fill-opacity:1;fill-rule:nonzero;stroke:none"
         d="m 1021.04,978.391 h 17.76 v 11.98 h -17.76 v -11.98" /><path
         id="path84"
         style="fill:#211d1d;fill-opacity:1;fill-rule:nonzero;stroke:none"
         d="m 986.762,990.371 v -11.98 h 17.758 v 11.98 h -12.411 -5.347" /><path
         id="path86"
         style="fill:#211d1d;fill-opacity:1;fill-rule:nonzero;stroke:none"
         d="m 952.48,990.371 v -11.98 h 17.762 v 11.98 h -10.234 -7.528" /><path
         id="path88"
         style="fill:#211d1d;fill-opacity:1;fill-rule:nonzero;stroke:none"
         d="m 918.199,990.371 v -11.98 h 17.762 v 11.98 h -8.063 -9.699" /><path
         id="path90"
         style="fill:#211d1d;fill-opacity:1;fill-rule:nonzero;stroke:none"
         d="m 883.918,978.391 h 17.762 v 11.98 h -17.762 v -11.98" /><path
         id="path92"
         style="fill:#211d1d;fill-opacity:1;fill-rule:nonzero;stroke:none"
         d="m 849.637,978.391 h 17.761 v 11.98 h -17.761 v -11.98" /><path
         id="path94"
         style="fill:#211d1d;fill-opacity:1;fill-rule:nonzero;stroke:none"
         d="m 815.355,978.391 h 17.762 v 11.98 h -17.762 v -11.98" /><path
         id="path96"
         style="fill:#211d1d;fill-opacity:1;fill-rule:nonzero;stroke:none"
         d="m 781.074,978.391 h 17.762 v 11.98 h -17.762 v -11.98" /><path
         id="path98"
         style="fill:#211d1d;fill-opacity:1;fill-rule:nonzero;stroke:none"
         d="m 746.793,978.391 h 17.762 v 11.98 h -17.762 v -11.98" /><path
         id="path100"
         style="fill:#211d1d;fill-opacity:1;fill-rule:nonzero;stroke:none"
         d="m 712.512,978.391 h 17.761 v 11.98 h -17.761 v -11.98" /><path
         id="path102"
         style="fill:#211d1d;fill-opacity:1;fill-rule:nonzero;stroke:none"
         d="m 678.23,978.391 h 17.762 v 11.98 H 678.23 v -11.98" /><path
         id="path104"
         style="fill:#211d1d;fill-opacity:1;fill-rule:nonzero;stroke:none"
         d="m 643.949,978.391 h 17.762 v 11.98 h -17.762 v -11.98" /><path
         id="path106"
         style="fill:#211d1d;fill-opacity:1;fill-rule:nonzero;stroke:none"
         d="m 2415.09,3799.31 h 73.47 v 32.14 h -73.47 v -32.14" /><path
         id="path108"
         style="fill:#211d1d;fill-opacity:1;fill-rule:nonzero;stroke:none"
         d="m 2532.59,3611.97 c 0,40.32 32.81,73.13 73.13,73.13 40.32,0 73.13,-32.81 73.13,-73.13 0,-40.33 -32.81,-73.13 -73.13,-73.13 -40.32,0 -73.13,32.8 -73.13,73.13 z m 178.4,0 c 0,58.04 -47.22,105.27 -105.27,105.27 -58.05,0 -105.27,-47.23 -105.27,-105.27 0,-58.05 47.22,-105.28 105.27,-105.28 58.05,0 105.27,47.23 105.27,105.28" /><path
         id="path110"
         style="fill:#211d1d;fill-opacity:1;fill-rule:nonzero;stroke:none"
         d="m 2643.75,3611.97 c 0,21 -17.03,38.03 -38.03,38.03 -21,0 -38.03,-17.03 -38.03,-38.03 0,-21.01 17.03,-38.04 38.03,-38.04 21,0 38.03,17.03 38.03,38.04" /><path
         id="path112"
         style="fill:#211d1d;fill-opacity:1;fill-rule:nonzero;stroke:none"
         d="m 2862.62,3684.9 h -117.57 c -26.35,50.12 -78.94,84.4 -139.33,84.4 -60.39,0 -112.98,-34.28 -139.33,-84.4 H 2117.2 c -7.35,13.04 -16.59,25.11 -27.6,35.82 -29.54,28.74 -68.46,44.57 -109.59,44.57 -41.13,0 -80.05,-15.83 -109.6,-44.57 -11,-10.71 -20.25,-22.78 -27.59,-35.82 h -111.24 v 139.61 H 2327 v 204.57 l 212.34,0.27 112.82,-164.29 210.46,-58.46 z m 0,-56.58 H 2762.2 c -0.87,8.36 -2.43,16.52 -4.57,24.44 h 104.99 z m -413.38,0 h -313.25 c -1.08,8.32 -2.83,16.48 -5.19,24.44 h 323 c -2.13,-7.92 -3.69,-16.08 -4.56,-24.44 z m -625.21,0 h -92.45 v 24.44 h 97.64 c -2.36,-7.96 -4.11,-16.12 -5.19,-24.44 z m -50.99,257.46 h 445.38 v -29.13 h -445.38 z m 0,86.09 h 445.38 v -53.95 h -445.38 z m 783.2,89.65 -261.38,-0.34 v -204.53 h -44.3 v 29.13 h 13.77 v 32.14 h -13.77 v 53.95 h 13.77 v 32.14 h -13.77 v 32.91 h -32.14 v -32.91 h -445.38 v 32.91 h -32.14 v -32.91 h -10.33 v -32.14 h 10.33 v -53.95 h -10.33 v -32.14 h 10.33 v -29.13 h -41.46 v -260.47 h 155.01 l 0.47,15.59 c 0.98,32.58 14.44,63.09 37.91,85.91 23.51,22.87 54.47,35.47 87.18,35.47 32.71,0 63.67,-12.6 87.18,-35.47 23.47,-22.82 36.93,-53.33 37.91,-85.91 l 0.47,-15.59 h 374.93 l 0.03,16.04 c 0.14,68.89 56.3,124.94 125.19,124.94 68.89,0 125.05,-56.05 125.18,-124.94 l 0.04,-16.04 h 163.82 v 234.85 l -222.72,61.87 -115.8,168.62" /><path
         id="path114"
         style="fill:#211d1d;fill-opacity:1;fill-rule:nonzero;stroke:none"
         d="m 1980.01,3681.09 c 40.32,0 73.13,-32.81 73.13,-73.14 0,-40.32 -32.81,-73.13 -73.13,-73.13 -40.32,0 -73.13,32.81 -73.13,73.13 0,40.33 32.81,73.14 73.13,73.14 z m 0,-178.41 c 58.05,0 105.27,47.23 105.27,105.27 0,58.05 -47.22,105.28 -105.27,105.28 -58.05,0 -105.27,-47.23 -105.27,-105.28 0,-58.04 47.22,-105.27 105.27,-105.27" /><path
         id="path116"
         style="fill:#211d1d;fill-opacity:1;fill-rule:nonzero;stroke:none"
         d="m 1980.01,3569.92 c 21,0 38.03,17.03 38.03,38.03 0,21.01 -17.03,38.04 -38.03,38.04 -21,0 -38.03,-17.03 -38.03,-38.04 0,-21 17.03,-38.03 38.03,-38.03" /><path
         id="path118"
         style="fill:#211d1d;fill-opacity:1;fill-rule:nonzero;stroke:none"
         d="m 2362.99,3993.13 v -114.15 h 235.95 l -78.53,114.36 -157.42,-0.21" /><path
         id="path120"
         style="fill:#211d1d;fill-opacity:1;fill-rule:nonzero;stroke:none"
         d="m 1139.03,3587.7 c 0,36.99 30.1,67.08 67.09,67.08 36.99,0 67.08,-30.09 67.08,-67.08 0,-36.99 -30.09,-67.08 -67.08,-67.08 -36.99,0 -67.09,30.09 -67.09,67.08 z m 166.31,0 c 0,54.71 -44.51,99.23 -99.22,99.23 -54.71,0 -99.23,-44.52 -99.23,-99.23 0,-54.71 44.52,-99.22 99.23,-99.22 54.71,0 99.22,44.51 99.22,99.22" /><path
         id="path122"
         style="fill:#211d1d;fill-opacity:1;fill-rule:nonzero;stroke:none"
         d="m 1241.57,3587.7 c 0,19.58 -15.87,35.45 -35.45,35.45 -19.58,0 -35.45,-15.87 -35.45,-35.45 0,-19.58 15.87,-35.45 35.45,-35.45 19.58,0 35.45,15.87 35.45,35.45" /><path
         id="path124"
         style="fill:#211d1d;fill-opacity:1;fill-rule:nonzero;stroke:none"
         d="m 641.477,3654.78 c 36.992,0 67.086,-30.09 67.086,-67.08 0,-36.99 -30.094,-67.08 -67.086,-67.08 -36.989,0 -67.082,30.09 -67.082,67.08 0,36.99 30.093,67.08 67.082,67.08 z m 0,-166.3 c 54.714,0 99.226,44.51 99.226,99.22 0,54.71 -44.512,99.23 -99.226,99.23 -54.711,0 -99.223,-44.52 -99.223,-99.23 0,-54.71 44.512,-99.22 99.223,-99.22" /><path
         id="path126"
         style="fill:#211d1d;fill-opacity:1;fill-rule:nonzero;stroke:none"
         d="m 641.477,3552.25 c 19.582,0 35.453,15.87 35.453,35.45 0,19.58 -15.871,35.45 -35.453,35.45 -19.582,0 -35.454,-15.87 -35.454,-35.45 0,-19.58 15.872,-35.45 35.454,-35.45" /><path
         id="path128"
         style="fill:#211d1d;fill-opacity:1;fill-rule:nonzero;stroke:none"
         d="m 1198.71,3984.02 v -160.74 h 63.77 l -29.26,160.74 h -34.51" /><path
         id="path130"
         style="fill:#211d1d;fill-opacity:1;fill-rule:nonzero;stroke:none"
         d="m 1041.9,3952.09 h 40.13 v -98.75 h -40.13 z m 72.27,0 h 40.12 v -98.75 h -40.12 z M 1009.76,3821.2 h 176.68 v 163.03 H 1009.76 V 3821.2" /><path
         id="path132"
         style="fill:#211d1d;fill-opacity:1;fill-rule:nonzero;stroke:none"
         d="m 1059.71,3768.52 h 44.77 v 32.14 h -44.77 v -32.14" /><path
         id="path134"
         style="fill:#211d1d;fill-opacity:1;fill-rule:nonzero;stroke:none"
         d="m 1407.22,3628.98 h -48.82 c -18.42,68.26 -80.44,116.51 -152.28,116.51 -76.38,0 -141.67,-54.54 -155.24,-129.69 l -2.41,-25.97 h -53.138 v 403.33 h 249.808 l 36.52,-168.3 125.56,-81.21 z M 963.191,3799.83 H 391.34 l 12.976,71.24 v -0.74 h 302.485 v -46.71 l 144.929,83.68 -144.929,83.67 v -46.7 H 417.656 l 17.922,98.35 h 527.613 z m 0,-210 H 797.32 l -0.445,25.14 -0.242,1.3 c -13.758,74.88 -79.012,129.22 -155.156,129.22 -70.739,0 -132.52,-47.35 -151.692,-114.35 l -129.039,0.8 24.734,135.75 h 577.711 z m 32.141,452.79 h 247.378 l -0.14,-17.32 H 995.332 Z m 279.238,-33.53 0.31,36.15 c 0,16.28 -12.77,29.52 -28.46,29.52 H 408.762 l -86.5,-474.72 193.367,-1.2 2.559,13.06 c 11.515,58.79 63.367,101.45 123.289,101.45 60.207,0 111.859,-42.66 123.308,-101.63 l 0.969,-54.03 h 312.086 l 4.79,53.07 c 11.08,59.49 62.9,102.59 123.49,102.59 60.83,0 112.82,-43.44 123.62,-103.29 l 2.38,-13.22 h 107.24 v 164.3 l -129.1,83.5 -35.69,164.45" /><path
         id="path136"
         style="fill:#211d1d;fill-opacity:1;fill-rule:nonzero;stroke:none"
         d="m 2675.38,2522.56 v -211.44 h -52.11 v 110.94 c 0,21.34 -14.26,38.64 -31.86,38.64 h -57.07 c -17.59,0 -31.85,-17.3 -31.85,-38.64 v -110.94 h -62.78 v 110.94 c 0,21.34 -14.26,38.64 -31.85,38.64 h -57.08 c -17.59,0 -31.85,-17.3 -31.85,-38.64 v -110.94 h -62.78 v 110.94 c 0,21.34 -14.26,38.64 -31.85,38.64 h -57.08 c -17.59,0 -31.85,-17.3 -31.85,-38.64 v -110.94 h -62.78 v 110.94 c 0,21.34 -14.26,38.64 -31.85,38.64 h -57.08 c -17.59,0 -31.85,-17.3 -31.85,-38.64 v -110.94 h -48.63 v 211.44 z m -684.58,87.98 h 542.07 V 2554.7 H 1990.8 Z m 716.72,-194.84 121.72,29.81 v -134.39 h -121.72 z m 0,106.86 h 121.72 v -44.03 c -0.43,-0.06 -0.85,-0.14 -1.28,-0.24 l -120.44,-29.5 z m 121.72,-290.45 H 1760.66 v 46.87 h 1068.58 z m 0,-83.07 H 1760.66 v 64.7 h 1068.58 z m -1068.58,302.03 110.38,-27.03 v -112.92 h -110.38 z m 0,71.49 h 110.38 v -65.43 l -110.38,27.03 z m -16.07,32.14 c -8.88,0 -16.07,-7.2 -16.07,-16.07 v -405.66 c 0,-8.87 7.19,-16.07 16.07,-16.07 h 96.6 c 2.65,-25.18 23.95,-44.8 49.83,-44.8 25.88,0 47.17,19.62 49.83,44.8 h 14.06 c 2.65,-25.18 23.95,-44.8 49.83,-44.8 25.88,0 47.17,19.62 49.83,44.8 h 13.1 c 2.65,-25.18 23.95,-44.8 49.83,-44.8 25.88,0 47.17,19.62 49.83,44.8 h 249 c 2.65,-25.18 23.95,-44.8 49.83,-44.8 25.88,0 47.17,19.62 49.83,44.8 h 14.06 c 2.65,-25.18 23.95,-44.8 49.83,-44.8 25.88,0 47.17,19.62 49.83,44.8 h 13.1 c 2.65,-25.18 23.94,-44.8 49.83,-44.8 25.88,0 47.17,19.62 49.83,44.8 h 102.84 c 8.87,0 16.07,7.2 16.07,16.07 v 405.66 c 0,8.87 -7.2,16.07 -16.07,16.07 h -280.29 v 55.84 h 41.35 c 8.87,0 16.07,7.19 16.07,16.07 0,8.88 -7.2,16.07 -16.07,16.07 h -685.35 c -8.88,0 -16.08,-7.19 -16.08,-16.07 0,-8.88 7.2,-16.07 16.08,-16.07 h 37.64 v -55.84 h -214.07" /><path
         id="path138"
         style="fill:#211d1d;fill-opacity:1;fill-rule:nonzero;stroke:none"
         d="m 2007.61,2571.74 h 72.24 v 17.82 h -72.24 v -17.82" /><path
         id="path140"
         style="fill:#211d1d;fill-opacity:1;fill-rule:nonzero;stroke:none"
         d="m 2113.19,2571.74 h 72.24 v 17.82 h -72.24 v -17.82" /><path
         id="path142"
         style="fill:#211d1d;fill-opacity:1;fill-rule:nonzero;stroke:none"
         d="m 2218.77,2571.74 h 72.24 v 17.82 h -72.24 v -17.82" /><path
         id="path144"
         style="fill:#211d1d;fill-opacity:1;fill-rule:nonzero;stroke:none"
         d="m 2324.35,2571.74 h 72.24 v 17.82 h -72.24 v -17.82" /><path
         id="path146"
         style="fill:#211d1d;fill-opacity:1;fill-rule:nonzero;stroke:none"
         d="m 2429.93,2571.74 h 72.24 v 17.82 h -72.24 v -17.82" /><path
         id="path148"
         style="fill:#211d1d;fill-opacity:1;fill-rule:nonzero;stroke:none"
         d="m 5291.39,5148.48 h 44.76 v 16.07 h -44.76 v -16.07" /><path
         id="path150"
         style="fill:#211d1d;fill-opacity:1;fill-rule:nonzero;stroke:none"
         d="m 5414.76,5059.48 c 34.57,0 62.68,-28.12 62.68,-62.68 0,-34.57 -28.11,-62.68 -62.68,-62.68 -34.56,0 -62.68,28.11 -62.68,62.68 0,34.56 28.12,62.68 62.68,62.68 z m 0,-157.51 c 52.29,0 94.83,42.54 94.83,94.83 0,52.28 -42.54,94.82 -94.83,94.82 -52.28,0 -94.82,-42.54 -94.82,-94.82 0,-52.29 42.54,-94.83 94.82,-94.83" /><path
         id="path152"
         style="fill:#211d1d;fill-opacity:1;fill-rule:nonzero;stroke:none"
         d="m 5414.76,4963.22 c 18.55,0 33.58,15.03 33.58,33.58 0,18.54 -15.03,33.58 -33.58,33.58 -18.54,0 -33.57,-15.04 -33.57,-33.58 0,-18.55 15.03,-33.58 33.57,-33.58" /><path
         id="path154"
         style="fill:#211d1d;fill-opacity:1;fill-rule:nonzero;stroke:none"
         d="m 4652.07,5047.56 v 119.67 h 577.84 v -119.67 h -207.17 c -20.97,57.43 -76.04,96.57 -137.98,96.57 -61.93,0 -117,-39.14 -137.97,-96.57 z m 0,407.61 h 695.73 v -81.59 h -117.89 v -174.2 h -577.84 z m 614.1,-156.29 75.69,1.92 91.69,-118.58 h 110.03 c 4.24,-1.79 13.39,-5.99 22.42,-12.34 9.6,-6.74 21.16,-17.43 22,-30.18 v -92.14 h -35.43 c -21.1,57.17 -76.1,96.12 -137.81,96.12 -61.71,0 -116.71,-38.95 -137.8,-96.12 h -10.79 z m -492.13,-271.6 c 13.55,49.87 59.08,84.7 110.72,84.7 51.65,0 97.18,-34.83 110.73,-84.7 l 3.22,-11.86 h 235.32 28.02 38.85 l 3.25,11.8 c 13.67,49.65 59.16,84.32 110.61,84.32 51.45,0 96.94,-34.67 110.62,-84.32 l 3.25,-11.8 h 91.51 v 124.74 l -0.02,0.81 c -2.42,48 -65.27,71.44 -67.95,72.42 l -2.66,0.97 h -100.18 l -92,118.98 -95.28,-2.41 v 10.51 h 117.89 v 145.87 h -760.01 v -471.89 h 150.89 l 3.22,11.86" /><path
         id="path156"
         style="fill:#211d1d;fill-opacity:1;fill-rule:nonzero;stroke:none"
         d="m 4828.21,4997.24 c 0,34.56 28.11,62.68 62.68,62.68 34.56,0 62.68,-28.12 62.68,-62.68 0,-34.56 -28.12,-62.68 -62.68,-62.68 -34.57,0 -62.68,28.12 -62.68,62.68 z m 157.5,0 c 0,52.29 -42.54,94.83 -94.82,94.83 -52.29,0 -94.83,-42.54 -94.83,-94.83 0,-52.29 42.54,-94.82 94.83,-94.82 52.28,0 94.82,42.53 94.82,94.82" /><path
         id="path158"
         style="fill:#211d1d;fill-opacity:1;fill-rule:nonzero;stroke:none"
         d="m 4924.46,4997.24 c 0,18.55 -15.03,33.58 -33.57,33.58 -18.55,0 -33.58,-15.03 -33.58,-33.58 0,-18.54 15.03,-33.58 33.58,-33.58 18.54,0 33.57,15.04 33.57,33.58" /><path
         id="path160"
         style="fill:#211d1d;fill-opacity:1;fill-rule:nonzero;stroke:none"
         d="m 5325.63,5280.49 h -39.41 v -97 h 114.79 l -75.38,97" /><path
         id="path162"
         style="fill:#211d1d;fill-opacity:1;fill-rule:nonzero;stroke:none"
         d="m 5665.48,2186.22 c -12.06,-18.26 -35.84,-24.95 -55.79,-27.18 -6.86,-0.77 -13.27,-1.02 -18.6,-1.02 -11.03,0 -18.67,1.03 -18.72,1.04 l -1.11,0.15 h -61.69 -17.1 -100.05 -17.1 -100.04 -364.87 -91.07 -26.08 -91.07 -26.08 -91.07 -6.46 v 76.11 h 1094.24 c 2.66,-18.26 1.42,-35.82 -7.34,-49.1 z m -1086.9,340.37 829.49,-0.06 69.09,-66.56 h -115.87 l 47,-139.79 h 213.96 l 35.7,-34.41 c 2.42,-5.81 4.77,-11.97 6.9,-18.31 H 4578.58 Z m 1107.69,-225.23 -1.29,3 -263.94,254.31 -874.65,0.06 0.05,-431.66 h 29.91 c 0.75,-30.49 24.73,-54.97 54.23,-54.97 29.49,0 53.47,24.48 54.22,54.97 h 8.7 c 0.75,-30.49 24.73,-54.97 54.22,-54.97 29.5,0 53.48,24.48 54.23,54.97 h 8.7 c 0.74,-30.49 24.73,-54.97 54.22,-54.97 29.5,0 53.48,24.48 54.23,54.97 h 352.84 c 4.64,-26.27 26.75,-46.19 53.36,-46.19 26.6,0 48.72,19.92 53.36,46.19 h 10.43 c 4.63,-26.27 26.75,-46.19 53.36,-46.19 26.6,0 48.72,19.92 53.35,46.19 h 10.44 c 4.63,-26.27 26.75,-46.19 53.36,-46.19 26.61,0 48.73,19.93 53.36,46.22 26.91,3.03 60.5,12.88 79.34,41.41 20.42,30.92 18.39,75.62 -6.03,132.85" /><path
         id="path164"
         style="fill:#211d1d;fill-opacity:1;fill-rule:nonzero;stroke:none"
         d="m 4625.78,2331.27 h 71.97 v 115.38 h -71.97 v -115.38" /><path
         id="path166"
         style="fill:#211d1d;fill-opacity:1;fill-rule:nonzero;stroke:none"
         d="m 4731.49,2331.27 h 71.98 v 115.38 h -71.98 v -115.38" /><path
         id="path168"
         style="fill:#211d1d;fill-opacity:1;fill-rule:nonzero;stroke:none"
         d="m 4837.21,2331.27 h 71.97 v 115.38 h -71.97 v -115.38" /><path
         id="path170"
         style="fill:#211d1d;fill-opacity:1;fill-rule:nonzero;stroke:none"
         d="m 4942.92,2331.27 h 71.98 v 115.38 h -71.98 v -115.38" /><path
         id="path172"
         style="fill:#211d1d;fill-opacity:1;fill-rule:nonzero;stroke:none"
         d="m 5048.64,2331.27 h 71.98 v 115.38 h -71.98 v -115.38" /><path
         id="path174"
         style="fill:#211d1d;fill-opacity:1;fill-rule:nonzero;stroke:none"
         d="m 4756.63,3784.92 c 67.87,0 123.09,-55.22 123.09,-123.09 0,-67.87 -55.22,-123.09 -123.09,-123.09 -67.87,0 -123.09,55.22 -123.09,123.09 0,67.87 55.22,123.09 123.09,123.09 z m 0,-278.32 c 85.6,0 155.23,69.63 155.23,155.23 0,85.59 -69.63,155.23 -155.23,155.23 -85.6,0 -155.23,-69.64 -155.23,-155.23 0,-85.6 69.63,-155.23 155.23,-155.23" /><path
         id="path176"
         style="fill:#211d1d;fill-opacity:1;fill-rule:nonzero;stroke:none"
         d="m 4756.63,3621.11 c 22.49,0 40.72,18.23 40.72,40.72 0,22.49 -18.23,40.71 -40.72,40.71 -22.49,0 -40.71,-18.22 -40.71,-40.71 0,-22.49 18.22,-40.72 40.71,-40.72" /><path
         id="path178"
         style="fill:#211d1d;fill-opacity:1;fill-rule:nonzero;stroke:none"
         d="m 5421.96,3766.05 29.64,-81.24 c -5.54,-6.95 -8.87,-15.74 -8.87,-25.32 0,-22.49 18.23,-40.72 40.71,-40.72 22.49,0 40.72,18.23 40.72,40.72 0,22.48 -18.23,40.71 -40.72,40.71 -1.07,0 -2.13,-0.08 -3.18,-0.16 l -28.59,78.36 c 10.14,2.71 20.79,4.18 31.77,4.18 67.88,0 123.09,-55.22 123.09,-123.09 0,-67.88 -55.21,-123.1 -123.09,-123.1 -67.87,0 -123.09,55.22 -123.09,123.1 0,45.48 24.82,85.25 61.61,106.56 z m -116.02,55.67 -402.53,2.26 c -6.16,5.48 -12.61,11.06 -19.41,16.76 -51.88,43.5 -102.73,76.55 -104.87,77.94 l -2.53,1.64 -116.17,23.96 -0.09,26.7 c 61.32,-4.95 261.45,-20.91 287.02,-20.91 17.89,0 55.02,-19.32 74.21,-31.49 l 9.16,-5.82 8.82,6.33 c 66.62,47.76 141.59,61.69 222.84,41.41 43.67,-10.91 77.68,-29.31 93.96,-39.23 -15.81,-39.43 -33.16,-72.32 -50.41,-99.55 z M 5200.8,3707.96 h -208.99 c -5.84,24.11 -23.91,51.83 -54.57,83.69 l 346.66,-1.94 c -38.55,-51.52 -72.84,-75.31 -83.1,-81.75 z m 127.41,-48.47 c 0,-85.6 69.64,-155.24 155.23,-155.24 85.6,0 155.24,69.64 155.24,155.24 0,85.59 -69.64,155.23 -155.24,155.23 -14.85,0 -29.2,-2.14 -42.81,-6.06 l -47.72,130.79 c 26.6,10.84 44.79,36.66 44.79,65.75 0,39.23 -32.54,71.15 -72.54,71.15 -11.35,0 -22.43,-2.62 -32.46,-7.56 -21.3,16.96 -60.17,32.11 -128.85,18.59 l 6.21,-31.53 c 94.06,18.52 114.29,-24.35 115.91,-28.23 l 9.51,-24.56 15.26,-41.8 c -19.78,10.16 -47,21.92 -79.38,30.12 -86.43,21.9 -169.79,8.02 -241.75,-40.09 -17.79,10.42 -56.12,30.92 -82.25,30.92 -22.65,0 -207.35,14.53 -301.85,22.21 l -17.43,1.42 0.3,-87.77 135.8,-28 c 77.08,-50.35 196.83,-147.17 197.59,-198.42 l 0.23,-15.83 h 247.18 l 3.53,1.86 c 4.14,2.19 95.25,51.83 164.66,210.58 l 33.44,-91.64 c -49.09,-26.11 -82.6,-77.77 -82.6,-137.13" /><path
         id="path180"
         style="fill:#211d1d;fill-opacity:1;fill-rule:nonzero;stroke:none"
         d="m 478.41,5037.27 c 0,41.14 33.477,74.62 74.621,74.62 41.145,0 74.621,-33.48 74.621,-74.62 0,-41.15 -33.476,-74.62 -74.621,-74.62 -41.144,0 -74.621,33.47 -74.621,74.62 z m 181.383,0 c 0,58.87 -47.895,106.76 -106.762,106.76 -58.871,0 -106.761,-47.89 -106.761,-106.76 0,-58.87 47.89,-106.76 106.761,-106.76 58.867,0 106.762,47.89 106.762,106.76" /><path
         id="path182"
         style="fill:#211d1d;fill-opacity:1;fill-rule:nonzero;stroke:none"
         d="m 591.695,5037.27 c 0,21.36 -17.308,38.67 -38.664,38.67 -21.355,0 -38.668,-17.31 -38.668,-38.67 0,-21.36 17.313,-38.67 38.668,-38.67 21.356,0 38.664,17.31 38.664,38.67" /><path
         id="path184"
         style="fill:#211d1d;fill-opacity:1;fill-rule:nonzero;stroke:none"
         d="m 1172.69,5037.27 c 0,41.14 33.47,74.62 74.62,74.62 41.14,0 74.62,-33.48 74.62,-74.62 0,-41.15 -33.48,-74.62 -74.62,-74.62 -41.15,0 -74.62,33.47 -74.62,74.62 z m 181.38,0 c 0,58.87 -47.9,106.76 -106.76,106.76 -58.87,0 -106.77,-47.89 -106.77,-106.76 0,-58.87 47.9,-106.76 106.77,-106.76 58.86,0 106.76,47.89 106.76,106.76" /><path
         id="path186"
         style="fill:#211d1d;fill-opacity:1;fill-rule:nonzero;stroke:none"
         d="m 1285.97,5037.27 c 0,21.36 -17.31,38.67 -38.66,38.67 -21.36,0 -38.67,-17.31 -38.67,-38.67 0,-21.36 17.31,-38.67 38.67,-38.67 21.35,0 38.66,17.31 38.66,38.67" /><path
         id="path188"
         style="fill:#211d1d;fill-opacity:1;fill-rule:nonzero;stroke:none"
         d="m 654.727,5255.47 h 65.429 v 20.67 h -65.429 v -20.67" /><path
         id="path190"
         style="fill:#211d1d;fill-opacity:1;fill-rule:nonzero;stroke:none"
         d="m 902.672,5255.47 h 65.43 v 20.67 h -65.43 v -20.67" /><path
         id="path192"
         style="fill:#211d1d;fill-opacity:1;fill-rule:nonzero;stroke:none"
         d="m 1450.42,5092.73 h -54.33 c -22.97,61.43 -82.49,103.36 -148.78,103.36 -87.24,0 -158.28,-70.71 -158.82,-157.82 H 711.852 c -0.547,87.11 -71.582,157.82 -158.821,157.82 -65.91,0 -125.324,-41.63 -148.504,-102.61 h -95.082 l -28.957,108.67 H 1479.5 Z M 321.195,5276.89 h 148.211 c 3.625,0 7.145,1.22 9.989,3.48 l 184.332,146.26 h 330.507 l 123.256,-128.9 c 2.67,-2.79 6.26,-4.53 10.11,-4.89 l 307.57,-29 32.66,-29.55 H 296.871 Z m 1131.585,14.37 c -2.57,2.33 -5.83,3.76 -9.28,4.08 l -306.92,28.94 -123.86,129.53 c -3.04,3.17 -7.23,4.96 -11.62,4.96 H 658.125 c -3.629,0 -7.148,-1.22 -9.988,-3.48 L 463.805,5309.03 H 311.863 c -5.765,0 -11.093,-3.09 -13.953,-8.1 l -49.23,-86.22 c -2.098,-3.67 -2.664,-8.02 -1.575,-12.11 l 34.461,-129.33 c 1.875,-7.03 8.247,-11.93 15.532,-11.93 h 118.965 c 7.132,0 13.41,4.7 15.417,11.54 15.747,53.62 65.727,91.07 121.551,91.07 69.852,0 126.684,-56.83 126.684,-126.68 0,-4.39 -0.242,-8.9 -0.715,-13.38 -0.477,-4.53 0.988,-9.05 4.035,-12.44 3.051,-3.38 7.391,-5.32 11.945,-5.32 h 410.37 c 0.02,0 0.04,0 0.05,0 8.88,0 16.07,7.19 16.07,16.07 0,0.97 -0.08,1.93 -0.25,2.85 -0.4,4.1 -0.59,8.21 -0.59,12.22 0,69.85 56.82,126.68 126.68,126.68 56.14,0 106.2,-37.72 121.73,-91.74 1.98,-6.88 8.28,-11.62 15.45,-11.62 h 78.29 c 7.29,0 13.66,4.9 15.53,11.94 l 39.39,148.23 c 1.54,5.82 -0.29,12.01 -4.75,16.04 l -60.17,54.46" /><path
         id="path194"
         style="fill:#211d1d;fill-opacity:1;fill-rule:nonzero;stroke:none"
         d="m 840.98,5401.99 v -99.48 h 222.14 l -84.268,99.48 H 840.98" /><path
         id="path196"
         style="fill:#211d1d;fill-opacity:1;fill-rule:nonzero;stroke:none"
         d="m 565.199,5302.51 h 246.703 v 99.48 H 676.273 l -111.074,-99.48" /><path
         id="path198"
         style="fill:#211d1d;fill-opacity:1;fill-rule:nonzero;stroke:none"
         d="m 2362.04,5224.91 h 48 v 20.66 h -48 v -20.66" /><path
         id="path200"
         style="fill:#211d1d;fill-opacity:1;fill-rule:nonzero;stroke:none"
         d="m 2120.77,5227.21 h 48.01 v 20.66 h -48.01 v -20.66" /><path
         id="path202"
         style="fill:#211d1d;fill-opacity:1;fill-rule:nonzero;stroke:none"
         d="m 2018.84,4952.93 c -41.15,0 -74.62,33.48 -74.62,74.62 0,41.15 33.47,74.62 74.62,74.62 41.15,0 74.62,-33.47 74.62,-74.62 0,-41.14 -33.47,-74.62 -74.62,-74.62 z m 0,181.39 c -58.87,0 -106.76,-47.9 -106.76,-106.77 0,-58.87 47.89,-106.76 106.76,-106.76 58.87,0 106.76,47.89 106.76,106.76 0,58.87 -47.89,106.77 -106.76,106.77" /><path
         id="path204"
         style="fill:#211d1d;fill-opacity:1;fill-rule:nonzero;stroke:none"
         d="m 2018.84,5066.22 c -21.35,0 -38.67,-17.31 -38.67,-38.67 0,-21.35 17.32,-38.66 38.67,-38.66 21.36,0 38.67,17.31 38.67,38.66 0,21.36 -17.31,38.67 -38.67,38.67" /><path
         id="path206"
         style="fill:#211d1d;fill-opacity:1;fill-rule:nonzero;stroke:none"
         d="m 1851.6,5439.78 595.66,-0.6 77.55,-148.11 c 2.58,-4.92 7.51,-8.16 13.05,-8.57 l 282.82,-21 8.16,-100.21 -52.53,-68.39 -28.33,-1.35 c -25.99,55.11 -82.34,91.38 -143.75,91.38 -41.69,0 -81.1,-16.09 -110.96,-45.32 -26.03,-25.46 -42.26,-58.39 -46.62,-93.99 h -269.79 c -8.08,80.06 -75.86,142.76 -158.02,142.76 -65.22,0 -122.62,-39.03 -146.93,-98.48 l -71.52,12.13 z m -85.35,-350.56 c -1.3,-8.67 4.57,-16.77 13.21,-18.24 l 100.33,-17.02 c 7.95,-1.35 15.64,3.4 18.03,11.08 16.57,53.35 65.2,89.19 121.02,89.19 69.85,0 126.68,-56.82 126.68,-126.68 0,-8.88 7.2,-16.07 16.07,-16.07 h 299.98 c 8.73,0 15.86,6.96 16.06,15.68 0.79,33.14 14.33,64.21 38.11,87.48 23.83,23.31 55.25,36.15 88.49,36.15 52.12,0 99.68,-32.78 118.35,-81.57 2.48,-6.48 8.84,-10.62 15.78,-10.31 l 46.93,2.24 c 4.71,0.23 9.1,2.52 11.97,6.27 l 60.84,79.2 c 2.43,3.17 3.6,7.12 3.28,11.09 l -9.78,120.1 c -0.64,7.89 -6.93,14.14 -14.83,14.72 l -287.63,21.36 -77.91,148.81 c -2.77,5.29 -8.25,8.61 -14.22,8.62 l -619.22,0.61 h -0.01 c -7.95,0 -14.71,-5.81 -15.89,-13.67 l -13.84,-91.79 h -63.52 v -208.91 h 32.03 l -10.31,-68.34" /><path
         id="path208"
         style="fill:#211d1d;fill-opacity:1;fill-rule:nonzero;stroke:none"
         d="m 2604.23,4949.49 c -41.14,0 -74.62,33.47 -74.62,74.62 0,41.14 33.48,74.62 74.62,74.62 41.15,0 74.63,-33.48 74.63,-74.62 0,-41.15 -33.48,-74.62 -74.63,-74.62 z m 0,181.38 c -58.86,0 -106.76,-47.89 -106.76,-106.76 0,-58.87 47.9,-106.76 106.76,-106.76 58.87,0 106.77,47.89 106.77,106.76 0,58.87 -47.9,106.76 -106.77,106.76" /><path
         id="path210"
         style="fill:#211d1d;fill-opacity:1;fill-rule:nonzero;stroke:none"
         d="m 2604.23,5062.78 c -21.35,0 -38.66,-17.32 -38.66,-38.67 0,-21.36 17.31,-38.67 38.66,-38.67 21.36,0 38.67,17.31 38.67,38.67 0,21.35 -17.31,38.67 -38.67,38.67" /><path
         id="path212"
         style="fill:#211d1d;fill-opacity:1;fill-rule:nonzero;stroke:none"
         d="m 2022.32,5403.6 -139.75,0.16 -15.31,-115.34 h 155.06 v 115.18" /><path
         id="path214"
         style="fill:#211d1d;fill-opacity:1;fill-rule:nonzero;stroke:none"
         d="m 2226.65,5403.37 -169.89,0.19 v -115.14 h 169.89 v 114.95" /><path
         id="path216"
         style="fill:#211d1d;fill-opacity:1;fill-rule:nonzero;stroke:none"
         d="m 2425.47,5403.14 -164.39,0.19 v -114.91 h 217.28 l -52.89,114.72" /><path
         id="path218"
         style="fill:#211d1d;fill-opacity:1;fill-rule:nonzero;stroke:none"
         d="m 4210.87,2290.22 h -279 v 242.67 h 159.58 c 20.3,-14.81 116.48,-90.61 141.49,-213.76 z m -108,-141.43 h -171 v 109.29 h 254.46 z m -3.74,-33.25 v -11.3 h -776.39 v 12.41 h 776.39 z m -861.76,131.13 h 250.26 v -97.88 h -175.52 z m -55.06,72.1 c 35.21,141.81 129.47,203.35 147.77,214.12 h 157.55 v -254.08 h -274.81 z m 337.46,214.12 h 379.96 v -384.1 h -132.58 v 342.15 H 3652.4 v -342.15 h -132.63 z m 188.19,16.53 v 0 0 z m 397.43,12.95 -4.02,2.66 h -382.45 l -2.88,7.04 -15.88,38.7 46.14,46.15 23.97,23.97 -22.73,22.73 -85.24,-85.25 21.88,-53.34 h -362.15 l -3.43,-1.75 c -5.24,-2.66 -128.66,-67.25 -169.36,-244.6 l -1.68,-7.35 L 3290.6,2124 v -51.9 h 840.67 v 60.92 l 135.87,177.93 -1.24,6.97 c -27.79,155.35 -155.1,240.89 -160.51,244.45" /><path
         id="path220"
         style="fill:#211d1d;fill-opacity:1;fill-rule:nonzero;stroke:none"
         d="m 3223.43,2346.83 h 118.6 l -1.67,167.05 c 0,0 -88.54,-86.87 -116.93,-167.05" /><path
         id="path222"
         style="fill:#211d1d;fill-opacity:1;fill-rule:nonzero;stroke:none"
         d="m 3387.14,2344.04 h 60.13 v 170.39 h -60.13 v -170.39" /><path
         id="path224"
         style="fill:#211d1d;fill-opacity:1;fill-rule:nonzero;stroke:none"
         d="m 3551.39,2336.44 h 60.14 v 170.39 h -60.14 v -170.39" /><path
         id="path226"
         style="fill:#211d1d;fill-opacity:1;fill-rule:nonzero;stroke:none"
         d="m 3862.47,2506.83 h -60.14 v -170.39 h 60.14 v 170.39" /><path
         id="path228"
         style="fill:#211d1d;fill-opacity:1;fill-rule:nonzero;stroke:none"
         d="m 4078.32,2513.88 -1.67,-167.05 h 118.61 c -28.4,80.18 -116.94,167.05 -116.94,167.05" /><path
         id="path230"
         style="fill:#211d1d;fill-opacity:1;fill-rule:nonzero;stroke:none"
         d="m 3971.41,2344.04 h 60.13 v 170.39 h -60.13 v -170.39" /><path
         id="path232"
         style="fill:#211d1d;fill-opacity:1;fill-rule:nonzero;stroke:none"
         d="M 2799.57,789.93 H 1757.26 c -3.89,13.312 -6.49,24.769 -8.15,33.281 l 336.11,0.93 h 552.81 c 3.9,0 7.66,1.418 10.59,3.988 l 24.55,21.531 h 149.31 z m -54.16,-141.25 c -6.93,-4.211 -23.08,-12.649 -40.98,-12.649 -2.14,0 -4.27,0.121 -6.33,0.36 -0.62,0.078 -1.25,0.109 -1.88,0.109 H 1848.7 c -25.22,22.852 -46.75,51.281 -64.05,84.609 -0.95,1.84 -1.89,3.672 -2.8,5.5 -7.79,15.68 -13.92,30.954 -18.75,44.95 h 1029.43 z m -863.58,403.44 460.78,0.5 v -30.28 c 0,-8.87 7.19,-16.07 16.07,-16.07 h 100.3 v -43.848 c 0,-8.883 7.2,-16.07 16.07,-16.07 h 106.99 v -87.321 h -741.6 z m 123.44,217.64 h 54.94 v -184.33 h -54.94 z m 166.7,-87.09 h 40.02 v -92.26 h -40.02 z m 673.88,-300.869 h -178.73 c -3.9,0 -7.66,-1.422 -10.59,-3.988 l -24.55,-21.532 h -17.8 v 106.141 c 0,8.867 -7.19,16.07 -16.07,16.07 h -106.99 v 43.848 c 0,8.88 -7.19,16.07 -16.07,16.07 h -100.3 v 30.3 c 0,4.27 -1.7,8.36 -4.72,11.37 -3.01,3.01 -7.09,4.7 -11.35,4.7 -0.01,0 -0.01,0 -0.02,0 l -114.53,-0.12 v 114.08 c 0,8.88 -7.2,16.08 -16.07,16.08 h -72.16 c -8.87,0 -16.07,-7.2 -16.07,-16.08 v -114.19 l -47.47,-0.06 v 201.34 c 0,8.87 -7.2,16.07 -16.08,16.07 h -87.08 c -8.87,0 -16.07,-7.2 -16.07,-16.07 v -201.47 l -104.32,-0.11 c -7.57,-0.01 -14.11,-5.3 -15.69,-12.7 l -46.3,-216.03 -76.6,-0.219 c -4.54,-0.012 -8.87,-1.942 -11.9,-5.321 -3.04,-3.378 -4.51,-7.878 -4.04,-12.398 0.03,-0.262 0.69,-6.543 2.61,-16.973 3.89,-21.078 13.77,-63.187 36.17,-108.289 0.99,-2 2.03,-4.007 3.07,-6.019 20.18,-38.879 45.74,-71.86 75.96,-98.02 2.92,-2.531 6.65,-3.922 10.52,-3.922 h 852.71 c 2.99,-0.308 6.05,-0.48 9.11,-0.48 v 0 c 34.59,0 62.53,20.441 63.71,21.312 2.45,1.821 4.33,4.301 5.43,7.149 l 87.28,227.629 c 1.9,4.953 1.24,10.5 -1.76,14.863 -3,4.359 -7.95,6.969 -13.24,6.969" /><path
         id="path234"
         style="fill:#211d1d;fill-opacity:1;fill-rule:nonzero;stroke:none"
         d="m 1904.19,1008.4 h 43.02 v 29.86 h -43.02 v -29.86" /><path
         id="path236"
         style="fill:#211d1d;fill-opacity:1;fill-rule:nonzero;stroke:none"
         d="m 1978.35,1008.4 h 43.02 v 29.86 h -43.02 v -29.86" /><path
         id="path238"
         style="fill:#211d1d;fill-opacity:1;fill-rule:nonzero;stroke:none"
         d="m 2052.52,1008.4 h 43.02 v 29.86 h -43.02 v -29.86" /><path
         id="path240"
         style="fill:#211d1d;fill-opacity:1;fill-rule:nonzero;stroke:none"
         d="m 2126.68,1008.4 h 43.02 v 29.86 h -43.02 v -29.86" /><path
         id="path242"
         style="fill:#211d1d;fill-opacity:1;fill-rule:nonzero;stroke:none"
         d="m 2200.84,1008.4 h 43.02 v 29.86 h -43.02 v -29.86" /><path
         id="path244"
         style="fill:#211d1d;fill-opacity:1;fill-rule:nonzero;stroke:none"
         d="m 2275.01,1008.4 h 43.02 v 29.86 h -43.02 v -29.86" /><path
         id="path246"
         style="fill:#211d1d;fill-opacity:1;fill-rule:nonzero;stroke:none"
         d="m 1904.19,949.52 h 43.02 v 29.859 h -43.02 V 949.52" /><path
         id="path248"
         style="fill:#211d1d;fill-opacity:1;fill-rule:nonzero;stroke:none"
         d="m 1978.35,949.52 h 43.02 v 29.859 h -43.02 V 949.52" /><path
         id="path250"
         style="fill:#211d1d;fill-opacity:1;fill-rule:nonzero;stroke:none"
         d="m 2052.52,949.52 h 43.02 v 29.859 h -43.02 V 949.52" /><path
         id="path252"
         style="fill:#211d1d;fill-opacity:1;fill-rule:nonzero;stroke:none"
         d="m 2126.68,949.52 h 43.02 v 29.859 h -43.02 V 949.52" /><path
         id="path254"
         style="fill:#211d1d;fill-opacity:1;fill-rule:nonzero;stroke:none"
         d="m 2200.84,949.52 h 43.02 v 29.859 h -43.02 V 949.52" /><path
         id="path256"
         style="fill:#211d1d;fill-opacity:1;fill-rule:nonzero;stroke:none"
         d="m 2275.01,949.52 h 43.02 v 29.859 h -43.02 V 949.52" /><path
         id="path258"
         style="fill:#211d1d;fill-opacity:1;fill-rule:nonzero;stroke:none"
         d="m 2352.97,949.52 h 43.02 v 29.859 h -43.02 V 949.52" /><path
         id="path260"
         style="fill:#211d1d;fill-opacity:1;fill-rule:nonzero;stroke:none"
         d="m 2427.16,881.93 h 43.02 v 29.851 h -43.02 V 881.93" /><path
         id="path262"
         style="fill:#211d1d;fill-opacity:1;fill-rule:nonzero;stroke:none"
         d="m 2501.8,881.93 h 43.02 v 29.851 H 2501.8 V 881.93" /><path
         id="path264"
         style="fill:#211d1d;fill-opacity:1;fill-rule:nonzero;stroke:none"
         d="m 1904.19,883.59 h 43.02 v 29.851 h -43.02 V 883.59" /><path
         id="path266"
         style="fill:#211d1d;fill-opacity:1;fill-rule:nonzero;stroke:none"
         d="m 1978.35,883.59 h 43.02 v 29.851 h -43.02 V 883.59" /><path
         id="path268"
         style="fill:#211d1d;fill-opacity:1;fill-rule:nonzero;stroke:none"
         d="m 2052.52,883.59 h 43.02 v 29.851 h -43.02 V 883.59" /><path
         id="path270"
         style="fill:#211d1d;fill-opacity:1;fill-rule:nonzero;stroke:none"
         d="m 2126.68,883.59 h 43.02 v 29.851 h -43.02 V 883.59" /><path
         id="path272"
         style="fill:#211d1d;fill-opacity:1;fill-rule:nonzero;stroke:none"
         d="m 2200.84,883.59 h 43.02 v 29.851 h -43.02 V 883.59" /><path
         id="path274"
         style="fill:#211d1d;fill-opacity:1;fill-rule:nonzero;stroke:none"
         d="m 2275.01,883.59 h 43.02 v 29.851 h -43.02 V 883.59" /><path
         id="path276"
         style="fill:#211d1d;fill-opacity:1;fill-rule:nonzero;stroke:none"
         d="m 2352.97,882.762 h 43.02 v 29.847 h -43.02 v -29.847" /><path
         id="path278"
         style="fill:#211d1d;fill-opacity:1;fill-rule:nonzero;stroke:none"
         d="m 1912.9,692 c 17.86,0 32.35,14.48 32.35,32.352 0,17.859 -14.49,32.339 -32.35,32.339 -17.86,0 -32.35,-14.48 -32.35,-32.339 0,-17.872 14.49,-32.352 32.35,-32.352" /><path
         id="path280"
         style="fill:#211d1d;fill-opacity:1;fill-rule:nonzero;stroke:none"
         d="m 2248.57,692 c 17.86,0 32.34,14.48 32.34,32.352 0,17.859 -14.48,32.339 -32.34,32.339 -17.86,0 -32.35,-14.48 -32.35,-32.339 0,-17.872 14.49,-32.352 32.35,-32.352" /><path
         id="path282"
         style="fill:#211d1d;fill-opacity:1;fill-rule:nonzero;stroke:none"
         d="m 2599.58,692 c 17.86,0 32.34,14.48 32.34,32.352 0,17.859 -14.48,32.339 -32.34,32.339 -17.86,0 -32.35,-14.48 -32.35,-32.339 0,-17.872 14.49,-32.352 32.35,-32.352" /><path
         id="path284"
         style="fill:#211d1d;fill-opacity:1;fill-rule:nonzero;stroke:none"
         d="m 4129.72,781.801 h -869.45 c -0.58,15.89 -0.15,31.25 0.82,45.34 l 175.16,-0.211 h 716.36 c -5.3,-11.828 -12.95,-27.641 -22.89,-45.129 z m -171.73,-145.77 h -642.78 c -5.81,4.578 -18.81,16.559 -30.62,39.481 -13.87,26.918 -20.57,57.828 -23.19,87.918 h 857.37 c -34.04,-54.41 -88.03,-116.739 -160.78,-127.399 z m -530.17,341.52 h 372.03 l 47.17,-116.192 h -466.37 z m 41.19,263.749 95.42,40.47 33.05,-268.67 h -151.65 z m 6.16,60.65 82.1,38.03 3.08,-25.03 -87.63,-37.17 z m 228.63,-160.56 h 83.04 v -121.44 h -83.04 z m 472.89,-282.32 h -294.05 l -49.49,121.891 h 22.05 c 8.88,0 16.07,7.191 16.07,16.07 0,8.869 -7.19,16.069 -16.07,16.069 h -36.22 v 128.29 h 11.73 c 8.87,0 16.07,7.19 16.07,16.07 0,8.87 -7.2,16.07 -16.07,16.07 h -27.8 -115.18 -27.79 c -8.88,0 -16.07,-7.2 -16.07,-16.07 0,-8.88 7.19,-16.07 16.07,-16.07 h 11.72 V 1013.1 h -41.8 l -43.38,352.69 c -0.63,5.1 -3.65,9.59 -8.14,12.08 -4.5,2.5 -9.91,2.7 -14.56,0.54 l -110.43,-51.14 c -5.15,-2.39 -8.66,-7.31 -9.23,-12.96 l -30.59,-301.21 h -42.35 c -8.88,0 -16.07,-7.2 -16.07,-16.069 0,-8.879 7.19,-16.07 16.07,-16.07 h 23.34 l -49.45,-121.781 -98.73,0.121 c -0.01,0 -0.02,0 -0.02,0 -8.27,0 -15.19,-6.27 -15.99,-14.5 -18.19,-184.41 68.04,-236.621 71.72,-238.75 2.45,-1.422 5.23,-2.172 8.06,-2.172 h 649.02 c 0.74,0 1.48,0.062 2.22,0.16 63.66,8.863 123.83,52.41 174,125.922 37.06,54.309 55.68,105.441 56.46,107.59 1.77,4.929 1.04,10.398 -1.97,14.691 -3.01,4.278 -7.92,6.828 -13.15,6.828" /><path
         id="path286"
         style="fill:#211d1d;fill-opacity:1;fill-rule:nonzero;stroke:none"
         d="m 3790.3,936.699 h -54.2 l 10.08,-51.187 h 58.79 l -14.67,51.187" /><path
         id="path288"
         style="fill:#211d1d;fill-opacity:1;fill-rule:nonzero;stroke:none"
         d="m 3638.84,936.699 1.82,-51.187 h 58.8 l -6.43,51.187 h -54.19" /><path
         id="path290"
         style="fill:#211d1d;fill-opacity:1;fill-rule:nonzero;stroke:none"
         d="m 3535.15,885.512 h 58.79 l 1.83,51.187 h -54.2 l -6.42,-51.187" /><path
         id="path292"
         style="fill:#211d1d;fill-opacity:1;fill-rule:nonzero;stroke:none"
         d="m 3429.63,885.512 h 58.8 l 10.07,51.187 h -54.2 l -14.67,-51.187" /><path
         id="path294"
         style="fill:#211d1d;fill-opacity:1;fill-rule:nonzero;stroke:none"
         d="m 3753.28,1074.27 h 18.28 v 37.02 h -18.28 v -37.02" /><path
         id="path296"
         style="fill:#211d1d;fill-opacity:1;fill-rule:nonzero;stroke:none"
         d="m 3721.74,1074.27 h 18.28 v 37.02 h -18.28 v -37.02" /><path
         id="path298"
         style="fill:#211d1d;fill-opacity:1;fill-rule:nonzero;stroke:none"
         d="m 5415.69,636.031 h -651.83 l -64.18,177.371 h 833.67 z M 4754.44,1019.76 H 5050.8 V 847.648 h -20.04 V 1000.56 H 4942.1 V 847.648 h -187.66 z m 55.63,136.14 h 45.31 l 10.64,-102.59 h -55.95 z m 0,54.78 h 39.63 l 2.35,-22.64 h -41.98 z m 351.01,-298.379 177.68,302.859 V 912.301 Z M 5370.9,1207.23 5527.45,912.301 H 5370.9 Z m 192.4,-361.691 h -192.4 v 34.621 h 183.27 c 5.64,0 10.87,2.949 13.77,7.789 2.91,4.832 3.07,10.832 0.43,15.813 l -197.82,372.688 c -1.54,7.27 -7.99,12.73 -15.72,12.73 -0.09,0 -0.17,-0.01 -0.26,-0.01 -0.04,0 -0.07,0.01 -0.1,0.01 -0.12,0 -0.23,0 -0.35,0 -5.69,0 -10.97,-3.01 -13.86,-7.94 l -221.1,-376.881 c -2.91,-4.968 -2.95,-11.117 -0.08,-16.117 2.86,-5 8.18,-8.082 13.94,-8.082 h 205.74 v -34.621 h -255.82 v 174.221 h 10.25 c 8.87,0 16.07,7.2 16.07,16.07 0,8.88 -7.2,16.07 -16.07,16.07 h -26.32 -168.39 l -11.27,108.67 c -0.72,11.33 -1.87,19.08 -2.58,24.88 l -4.46,42.96 c -0.85,8.19 -7.75,14.41 -15.98,14.41 H 4794 c -8.88,0 -16.07,-7.19 -16.07,-16.07 V 1051.9 h -39.56 -26.32 c -8.88,0 -16.07,-7.19 -16.07,-16.07 0,-8.87 7.19,-16.07 16.07,-16.07 h 10.25 V 845.539 h -45.52 c -5.24,0 -10.15,-2.547 -13.16,-6.84 -3.01,-4.289 -3.73,-9.769 -1.95,-14.699 l 75.81,-209.508 c 2.3,-6.371 8.34,-10.613 15.11,-10.613 h 671.73 c 5.38,0 10.41,2.703 13.39,7.191 l 138.98,209.52 c 3.27,4.93 3.57,11.262 0.77,16.48 -2.8,5.211 -8.24,8.469 -14.16,8.469" /><path
         id="path300"
         style="fill:#211d1d;fill-opacity:1;fill-rule:nonzero;stroke:none"
         d="m 4851.91,919.492 h 65.27 v 81.068 h -65.27 v -81.068" /><path
         id="path302"
         style="fill:#211d1d;fill-opacity:1;fill-rule:nonzero;stroke:none"
         d="m 4764.87,919.492 h 65.28 v 81.068 h -65.28 v -81.068" /><path
         id="path304"
         style="fill:#211d1d;fill-opacity:1;fill-rule:nonzero;stroke:none"
         d="m 4043.03,3598.83 c 18.05,0 32.68,15.23 32.68,34.02 0,18.79 -14.63,34.03 -32.68,34.03 -18.05,0 -32.68,-15.24 -32.68,-34.03 0,-18.79 14.63,-34.02 32.68,-34.02" /><path
         id="path306"
         style="fill:#211d1d;fill-opacity:1;fill-rule:nonzero;stroke:none"
         d="m 3406.42,3536.39 c -37.58,0 -69.94,23.76 -84.21,57.68 h 168.42 c -14.27,-33.92 -46.64,-57.68 -84.21,-57.68 z m 349.78,89.82 h -505.56 c 5.4,85.7 54.36,158.18 145.75,215.62 67.89,42.68 136.91,61.86 148.66,64.93 h 141.09 l -75.32,-65.62 0.75,-8.18 c 5.18,-56.99 24.27,-95.94 56.75,-115.79 l 2.96,-1.81 42,-5.19 h 83.5 c 1.33,-0.13 3.6,-0.28 6.53,-0.28 5.09,0 12.95,0.49 21.5,2.81 22.99,6.24 39.09,22.45 45.36,45.64 2.29,8.49 4.2,20.33 6.62,35.31 9.63,59.72 25.76,159.66 85.97,159.66 0.56,0 1.13,0 1.7,-0.02 l 16.52,-0.47 v 54.99 l -50.25,24.65 v 40.27 l 67.27,20.52 v -71.14 l -15.88,-13.99 32.35,-145.31 c -2.36,-6.16 -7.47,-18.79 -15.38,-35.12 -2.35,-4.85 -4.95,-10.03 -7.8,-15.46 -2.59,-4.94 -5.4,-10.1 -8.41,-15.41 -8.53,-15.06 -18.75,-31.38 -30.7,-47.73 -26.34,-36.05 -54.83,-64.28 -85.28,-84.58 -8.25,-5.5 -16.65,-10.41 -25.19,-14.75 -7.51,-3.82 -15.14,-7.17 -22.88,-10.07 -20.17,-7.59 -41.06,-12.11 -62.63,-13.48 z m 378.83,6.64 c 0,-53.18 -41.27,-96.46 -92,-96.46 -46.9,0 -85.69,37 -91.28,84.61 l 48.56,51.49 h 126.56 c 5.22,-12.1 8.16,-25.51 8.16,-39.64 z m 10.95,71.78 h -159.54 l -24.17,-25.63 -25.03,-26.53 h -0.61 -16.3 -15.89 c 6.6,5.18 13.09,10.7 19.48,16.55 19.29,17.65 37.59,38.28 54.73,61.81 4.68,6.43 9.09,12.84 13.27,19.17 10.23,15.51 18.94,30.5 26.21,44.11 10.91,-1.19 29.38,-4.55 50.09,-14.04 33.63,-15.42 60.2,-40.74 79.23,-75.44 z m 41.79,-9.91 c -40.26,97.08 -114.97,122.91 -154.6,129.74 8.53,18.63 12.81,30.83 13.2,31.94 l 1.5,4.31 -30.25,135.85 12.52,11.04 v 0.06 c 11.91,0.3 21.53,28.75 21.53,63.82 0,35.08 -9.62,63.54 -21.53,63.83 v 1.35 l -131.55,-40.14 v -16.85 l -54.78,-16.77 7.55,-31.44 47.23,-6.33 v -12.71 l 50.25,-24.65 v -3.4 c -75.8,-12.17 -93.84,-123.97 -103.78,-185.6 -2.18,-13.51 -4.06,-25.17 -5.92,-32.05 -3.3,-12.22 -10.74,-19.75 -22.75,-23.01 -8.77,-2.38 -16.7,-1.53 -16.73,-1.53 v 0 l -1.02,0.13 h -83.38 l -32.92,4.07 c -20.35,14.02 -33.08,41.37 -37.91,81.41 l 127.53,111.11 h -4.81 c 0.3,2.98 -1.53,6.68 -5.76,10.7 l -48.56,46.13 c -10.21,9.7 -30.49,17.64 -45.07,17.64 h -109.04 c -14.58,0 -26.51,-11.13 -26.51,-24.72 v -31.96 c 0,-7.05 3.22,-13.41 8.34,-17.93 l -1.27,-0.3 c -3.26,-0.79 -80.7,-19.75 -159.26,-68.95 C 3274.03,3803.13 3218,3713.44 3218,3610.14 v -16.07 h 70.06 c 15.91,-52.01 62.95,-89.82 118.36,-89.82 55.41,0 102.44,37.81 118.36,89.82 h 231.87 v 0 h 7.62 v 0.52 c 31.04,2.75 61.1,11.43 89.75,25.74 h 65.47 c 6.1,-65.06 59.17,-116.08 123.54,-116.08 68.45,0 124.14,57.69 124.14,128.6 0,13.83 -2.14,27.15 -6.06,39.64 h 35.87 l -9.21,22.23" /><path
         id="path308"
         style="fill:#211d1d;fill-opacity:1;fill-rule:nonzero;stroke:none"
         d="m 3475.8,3739.44 h 26.75 v 32.14 h -101.92 v -10.28 -16.09 -5.77 h 40.41 34.76" /><path
         id="path310"
         style="fill:#211d1d;fill-opacity:1;fill-rule:nonzero;stroke:none"
         d="m 3485.57,3709.44 h -116.35 v -32.14 h 164.39 v 32.14 h -27.53 -20.51" /><path
         id="path312"
         style="fill:#211d1d;fill-opacity:1;fill-rule:nonzero;stroke:none"
         d="m 1178.42,2081.12 c -81.94,0 -148.61,66.67 -148.61,148.61 0,57.58 32.94,107.58 80.95,132.24 l 41.57,-110.43 c -4.94,-5.91 -7.92,-13.51 -7.92,-21.81 0,-18.78 15.23,-34.01 34.01,-34.01 18.79,0 34.01,15.23 34.01,34.01 0,17.52 -13.25,31.94 -30.27,33.8 l -41.4,109.96 c 12.04,3.16 24.65,4.85 37.66,4.85 81.94,0 148.61,-66.67 148.61,-148.61 0,-81.94 -66.67,-148.61 -148.61,-148.61 z m -299.842,209.69 c -15.773,12.36 -34.812,18.21 -54.316,16.53 -2.938,-0.26 -6.141,-0.58 -9.571,-0.97 l -49.593,182.29 h 297.972 l 2.1,-5.57 z m -55.344,-15.85 c 1.313,0.13 2.59,0.25 3.801,0.36 10.149,0.88 20.184,-1.91 28.926,-7.82 l -23.973,-24.71 z m 57.243,-54.53 c 0,-16.61 -7.325,-33.01 -19.59,-43.86 -6.867,-6.08 -18.215,-12.95 -33.282,-11.09 -16.117,1.98 -40.886,7.23 -68.425,13.82 5.16,16.78 7.949,34.58 7.949,53.03 0,11.67 -1.152,23.08 -3.277,34.14 9.55,1.58 18.707,3.04 27.214,4.31 l 17.313,-63.64 c 1.516,-5.57 5.902,-9.9 11.492,-11.34 1.328,-0.34 2.676,-0.51 4.012,-0.51 4.289,0 8.469,1.72 11.535,4.88 l 40.73,41.98 c 2.797,-6.88 4.329,-14.29 4.329,-21.72 z M 586.379,2083.72 c -81.941,0 -148.609,66.66 -148.609,148.61 0,81.94 66.668,148.61 148.609,148.61 21.48,0 41.891,-4.62 60.348,-12.86 L 588.34,2266.29 c -1.758,-0.36 -2.918,-0.59 -3.387,-0.69 -2.683,-0.55 -5.07,-1.74 -7.039,-3.37 -13.867,-4.29 -23.945,-17.22 -23.945,-32.5 0,-14.01 8.476,-26.04 20.582,-31.25 1.945,-2.22 4.515,-3.94 7.558,-4.83 4.403,-1.29 68.571,-20.01 132.45,-36.39 -25.844,-43.95 -73.61,-73.54 -128.18,-73.54 z m 43.793,190.9 44.324,77.28 c 20.793,-15.36 37.434,-36.01 47.965,-59.94 -32.945,-5.87 -66.523,-12.29 -92.289,-17.34 z m 104.816,-42.29 c 0,-15.79 -2.496,-31 -7.078,-45.29 -40.445,10.3 -82.078,21.87 -108.625,29.39 1.742,4.08 2.707,8.58 2.707,13.3 0,3.56 -0.551,6.98 -1.558,10.2 27.5,5.44 70.582,13.8 111.75,21.1 1.824,-9.29 2.804,-18.88 2.804,-28.7 z m 3.606,231.32 L 782.57,2302 c -8.742,-1.33 -18.043,-2.82 -27.672,-4.43 -12.964,33.36 -35.546,61.94 -64.343,82.33 z m 439.826,-53.17 c -16.99,0 -33.42,-2.41 -49.02,-6.81 l -68.89,183.03 58.93,12.42 c 5.52,1.17 10.03,5.14 11.87,10.48 1.85,5.33 0.76,11.24 -2.86,15.56 l -49.56,59.2 c -5.7,6.81 -15.84,7.71 -22.64,2.01 -6.81,-5.7 -7.7,-15.84 -2.01,-22.64 l 32.38,-38.68 -51.07,-10.76 c -4.58,-0.97 -8.52,-3.89 -10.77,-8 -2.26,-4.11 -2.6,-9 -0.95,-13.39 l 27.14,-72.1 H 760.25 v 44.56 c 0,1.49 -0.219,2.92 -0.598,4.29 8.508,3.25 19.993,5.99 34.203,5.59 h 39.239 c 0,0 -8.645,16.58 -19.621,18.91 l -68.938,-1.19 -19.918,-0.35 -5.496,-0.09 c -48.113,-1.87 -67.266,14.01 -67.266,14.01 0,0 -6.769,-3.5 2.106,-15.18 0,0 36.078,-43.81 74.148,-36.49 v -44.89 l -65.324,-113.89 c -23.226,10.88 -49.109,17 -76.406,17 -99.664,0 -180.75,-81.08 -180.75,-180.75 0,-99.67 81.086,-180.75 180.75,-180.75 69.711,0 130.285,39.69 160.43,97.64 30.57,-7.39 58.593,-13.4 76.882,-15.64 2.942,-0.36 5.879,-0.54 8.801,-0.54 17.953,0 35.332,6.75 49.696,19.46 19.054,16.86 30.429,42.25 30.429,67.93 0,16.39 -4.523,32.34 -12.765,46.14 l 177.828,183.27 21.68,-57.6 c -60.15,-29.38 -101.688,-91.18 -101.688,-162.51 0,-99.66 81.088,-180.75 180.748,-180.75 99.67,0 180.75,81.09 180.75,180.75 0,99.67 -81.08,180.75 -180.75,180.75" /></g></g></svg>